<?xml version="1.0" encoding="utf-8" standalone="no"?>
<!DOCTYPE svg PUBLIC "-//W3C//DTD SVG 1.1//EN"
  "http://www.w3.org/Graphics/SVG/1.1/DTD/svg11.dtd">
<svg xmlns:xlink="http://www.w3.org/1999/xlink" width="509.968119pt" height="349.628812pt" viewBox="0 0 509.968119 349.628812" xmlns="http://www.w3.org/2000/svg" version="1.1">
 <metadata>
  <rdf:RDF xmlns:dc="http://purl.org/dc/elements/1.1/" xmlns:cc="http://creativecommons.org/ns#" xmlns:rdf="http://www.w3.org/1999/02/22-rdf-syntax-ns#">
   <cc:Work>
    <dc:type rdf:resource="http://purl.org/dc/dcmitype/StillImage"/>
    <dc:date>2026-04-02T07:39:31.864473</dc:date>
    <dc:format>image/svg+xml</dc:format>
    <dc:creator>
     <cc:Agent>
      <dc:title>Matplotlib v3.10.5, https://matplotlib.org/</dc:title>
     </cc:Agent>
    </dc:creator>
   </cc:Work>
  </rdf:RDF>
 </metadata>
 <defs>
  <style type="text/css">*{stroke-linejoin: round; stroke-linecap: butt}</style>
 </defs>
 <g id="figure_1">
  <g id="patch_1">
   <path d="M 0 349.628812 
L 509.968119 349.628812 
L 509.968119 0 
L 0 0 
z
" style="fill: #ffffff"/>
  </g>
  <g id="axes_1">
   <g id="patch_2">
    <path d="M 43.181969 220.385258 
L 258.225044 220.385258 
L 258.225044 52.032 
L 43.181969 52.032 
z
" style="fill: #ffffff"/>
   </g>
   <g id="matplotlib.axis_1">
    <g id="xtick_1">
     <g id="line2d_1">
      <defs>
       <path id="m17b54ee764" d="M 0 0 
L 0 3.5 
" style="stroke: #000000; stroke-width: 0.8"/>
      </defs>
      <g>
       <use xlink:href="#m17b54ee764" x="45.870007" y="220.385258" style="stroke: #000000; stroke-width: 0.8"/>
      </g>
     </g>
    </g>
    <g id="xtick_2">
     <g id="line2d_2">
      <g>
       <use xlink:href="#m17b54ee764" x="61.998238" y="220.385258" style="stroke: #000000; stroke-width: 0.8"/>
      </g>
     </g>
    </g>
    <g id="xtick_3">
     <g id="line2d_3">
      <g>
       <use xlink:href="#m17b54ee764" x="88.878622" y="220.385258" style="stroke: #000000; stroke-width: 0.8"/>
      </g>
     </g>
    </g>
    <g id="xtick_4">
     <g id="line2d_4">
      <g>
       <use xlink:href="#m17b54ee764" x="142.639391" y="220.385258" style="stroke: #000000; stroke-width: 0.8"/>
      </g>
     </g>
    </g>
    <g id="xtick_5">
     <g id="line2d_5">
      <g>
       <use xlink:href="#m17b54ee764" x="250.160928" y="220.385258" style="stroke: #000000; stroke-width: 0.8"/>
      </g>
     </g>
    </g>
   </g>
   <g id="matplotlib.axis_2">
    <g id="ytick_1">
     <g id="line2d_6">
      <path d="M 43.181969 216.515069 
L 258.225044 216.515069 
" clip-path="url(#p5d35f4ad7f)" style="fill: none; stroke: #b0b0b0; stroke-opacity: 0.25; stroke-width: 0.8; stroke-linecap: square"/>
     </g>
     <g id="line2d_7">
      <defs>
       <path id="mab547f9226" d="M 0 0 
L -3.5 0 
" style="stroke: #000000; stroke-width: 0.8"/>
      </defs>
      <g>
       <use xlink:href="#mab547f9226" x="43.181969" y="216.515069" style="stroke: #000000; stroke-width: 0.8"/>
      </g>
     </g>
     <g id="text_1">
      <!-- 0.1 -->
      <g transform="translate(23.459469 219.554444) scale(0.08 -0.08)">
       <defs>
        <path id="DejaVuSerif-30" d="M 2034 219 
Q 2513 219 2750 744 
Q 2988 1269 2988 2328 
Q 2988 3391 2750 3916 
Q 2513 4441 2034 4441 
Q 1556 4441 1318 3916 
Q 1081 3391 1081 2328 
Q 1081 1269 1318 744 
Q 1556 219 2034 219 
z
M 2034 -91 
Q 1275 -91 848 546 
Q 422 1184 422 2328 
Q 422 3475 848 4112 
Q 1275 4750 2034 4750 
Q 2797 4750 3222 4112 
Q 3647 3475 3647 2328 
Q 3647 1184 3222 546 
Q 2797 -91 2034 -91 
z
" transform="scale(0.015625)"/>
        <path id="DejaVuSerif-2e" d="M 603 325 
Q 603 500 722 622 
Q 841 744 1019 744 
Q 1191 744 1312 622 
Q 1434 500 1434 325 
Q 1434 153 1312 31 
Q 1191 -91 1019 -91 
Q 841 -91 722 29 
Q 603 150 603 325 
z
" transform="scale(0.015625)"/>
        <path id="DejaVuSerif-31" d="M 909 0 
L 909 331 
L 1722 331 
L 1722 4213 
L 781 3603 
L 781 4013 
L 1919 4750 
L 2350 4750 
L 2350 331 
L 3163 331 
L 3163 0 
L 909 0 
z
" transform="scale(0.015625)"/>
       </defs>
       <use xlink:href="#DejaVuSerif-30"/>
       <use xlink:href="#DejaVuSerif-2e" transform="translate(63.623047 0)"/>
       <use xlink:href="#DejaVuSerif-31" transform="translate(95.410156 0)"/>
      </g>
     </g>
    </g>
    <g id="ytick_2">
     <g id="line2d_8">
      <path d="M 43.181969 197.164119 
L 258.225044 197.164119 
" clip-path="url(#p5d35f4ad7f)" style="fill: none; stroke: #b0b0b0; stroke-opacity: 0.25; stroke-width: 0.8; stroke-linecap: square"/>
     </g>
     <g id="line2d_9">
      <g>
       <use xlink:href="#mab547f9226" x="43.181969" y="197.164119" style="stroke: #000000; stroke-width: 0.8"/>
      </g>
     </g>
     <g id="text_2">
      <!-- 0.2 -->
      <g transform="translate(23.459469 200.203494) scale(0.08 -0.08)">
       <defs>
        <path id="DejaVuSerif-32" d="M 819 3553 
L 469 3553 
L 469 4384 
Q 803 4563 1142 4656 
Q 1481 4750 1806 4750 
Q 2534 4750 2956 4397 
Q 3378 4044 3378 3438 
Q 3378 2753 2422 1800 
Q 2347 1728 2309 1691 
L 1131 513 
L 3078 513 
L 3078 1088 
L 3444 1088 
L 3444 0 
L 434 0 
L 434 341 
L 1850 1753 
Q 2319 2222 2519 2614 
Q 2719 3006 2719 3438 
Q 2719 3909 2473 4175 
Q 2228 4441 1797 4441 
Q 1350 4441 1106 4219 
Q 863 3997 819 3553 
z
" transform="scale(0.015625)"/>
       </defs>
       <use xlink:href="#DejaVuSerif-30"/>
       <use xlink:href="#DejaVuSerif-2e" transform="translate(63.623047 0)"/>
       <use xlink:href="#DejaVuSerif-32" transform="translate(95.410156 0)"/>
      </g>
     </g>
    </g>
    <g id="ytick_3">
     <g id="line2d_10">
      <path d="M 43.181969 177.81317 
L 258.225044 177.81317 
" clip-path="url(#p5d35f4ad7f)" style="fill: none; stroke: #b0b0b0; stroke-opacity: 0.25; stroke-width: 0.8; stroke-linecap: square"/>
     </g>
     <g id="line2d_11">
      <g>
       <use xlink:href="#mab547f9226" x="43.181969" y="177.81317" style="stroke: #000000; stroke-width: 0.8"/>
      </g>
     </g>
     <g id="text_3">
      <!-- 0.3 -->
      <g transform="translate(23.459469 180.852545) scale(0.08 -0.08)">
       <defs>
        <path id="DejaVuSerif-33" d="M 622 4469 
Q 988 4606 1323 4678 
Q 1659 4750 1953 4750 
Q 2638 4750 3022 4454 
Q 3406 4159 3406 3634 
Q 3406 3213 3140 2930 
Q 2875 2647 2388 2547 
Q 2963 2466 3280 2130 
Q 3597 1794 3597 1259 
Q 3597 606 3158 257 
Q 2719 -91 1894 -91 
Q 1528 -91 1179 -12 
Q 831 66 488 225 
L 488 1131 
L 838 1131 
Q 869 681 1141 450 
Q 1413 219 1906 219 
Q 2384 219 2661 495 
Q 2938 772 2938 1253 
Q 2938 1803 2653 2086 
Q 2369 2369 1819 2369 
L 1522 2369 
L 1522 2688 
L 1678 2688 
Q 2225 2688 2498 2914 
Q 2772 3141 2772 3597 
Q 2772 4006 2547 4223 
Q 2322 4441 1900 4441 
Q 1478 4441 1245 4241 
Q 1013 4041 972 3647 
L 622 3647 
L 622 4469 
z
" transform="scale(0.015625)"/>
       </defs>
       <use xlink:href="#DejaVuSerif-30"/>
       <use xlink:href="#DejaVuSerif-2e" transform="translate(63.623047 0)"/>
       <use xlink:href="#DejaVuSerif-33" transform="translate(95.410156 0)"/>
      </g>
     </g>
    </g>
    <g id="ytick_4">
     <g id="line2d_12">
      <path d="M 43.181969 158.462221 
L 258.225044 158.462221 
" clip-path="url(#p5d35f4ad7f)" style="fill: none; stroke: #b0b0b0; stroke-opacity: 0.25; stroke-width: 0.8; stroke-linecap: square"/>
     </g>
     <g id="line2d_13">
      <g>
       <use xlink:href="#mab547f9226" x="43.181969" y="158.462221" style="stroke: #000000; stroke-width: 0.8"/>
      </g>
     </g>
     <g id="text_4">
      <!-- 0.4 -->
      <g transform="translate(23.459469 161.501596) scale(0.08 -0.08)">
       <defs>
        <path id="DejaVuSerif-34" d="M 2234 1581 
L 2234 4063 
L 641 1581 
L 2234 1581 
z
M 3609 0 
L 1484 0 
L 1484 331 
L 2234 331 
L 2234 1247 
L 197 1247 
L 197 1588 
L 2241 4750 
L 2859 4750 
L 2859 1581 
L 3750 1581 
L 3750 1247 
L 2859 1247 
L 2859 331 
L 3609 331 
L 3609 0 
z
" transform="scale(0.015625)"/>
       </defs>
       <use xlink:href="#DejaVuSerif-30"/>
       <use xlink:href="#DejaVuSerif-2e" transform="translate(63.623047 0)"/>
       <use xlink:href="#DejaVuSerif-34" transform="translate(95.410156 0)"/>
      </g>
     </g>
    </g>
    <g id="ytick_5">
     <g id="line2d_14">
      <path d="M 43.181969 139.111272 
L 258.225044 139.111272 
" clip-path="url(#p5d35f4ad7f)" style="fill: none; stroke: #b0b0b0; stroke-opacity: 0.25; stroke-width: 0.8; stroke-linecap: square"/>
     </g>
     <g id="line2d_15">
      <g>
       <use xlink:href="#mab547f9226" x="43.181969" y="139.111272" style="stroke: #000000; stroke-width: 0.8"/>
      </g>
     </g>
     <g id="text_5">
      <!-- 0.5 -->
      <g transform="translate(23.459469 142.150647) scale(0.08 -0.08)">
       <defs>
        <path id="DejaVuSerif-35" d="M 3219 4666 
L 3219 4153 
L 1081 4153 
L 1081 2816 
Q 1244 2928 1461 2984 
Q 1678 3041 1947 3041 
Q 2703 3041 3140 2622 
Q 3578 2203 3578 1478 
Q 3578 738 3136 323 
Q 2694 -91 1894 -91 
Q 1572 -91 1234 -12 
Q 897 66 544 225 
L 544 1131 
L 897 1131 
Q 925 688 1179 453 
Q 1434 219 1894 219 
Q 2388 219 2653 544 
Q 2919 869 2919 1478 
Q 2919 2084 2655 2407 
Q 2391 2731 1894 2731 
Q 1613 2731 1398 2631 
Q 1184 2531 1019 2322 
L 750 2322 
L 750 4666 
L 3219 4666 
z
" transform="scale(0.015625)"/>
       </defs>
       <use xlink:href="#DejaVuSerif-30"/>
       <use xlink:href="#DejaVuSerif-2e" transform="translate(63.623047 0)"/>
       <use xlink:href="#DejaVuSerif-35" transform="translate(95.410156 0)"/>
      </g>
     </g>
    </g>
    <g id="ytick_6">
     <g id="line2d_16">
      <path d="M 43.181969 119.760322 
L 258.225044 119.760322 
" clip-path="url(#p5d35f4ad7f)" style="fill: none; stroke: #b0b0b0; stroke-opacity: 0.25; stroke-width: 0.8; stroke-linecap: square"/>
     </g>
     <g id="line2d_17">
      <g>
       <use xlink:href="#mab547f9226" x="43.181969" y="119.760322" style="stroke: #000000; stroke-width: 0.8"/>
      </g>
     </g>
     <g id="text_6">
      <!-- 0.6 -->
      <g transform="translate(23.459469 122.799697) scale(0.08 -0.08)">
       <defs>
        <path id="DejaVuSerif-36" d="M 2094 219 
Q 2534 219 2771 542 
Q 3009 866 3009 1472 
Q 3009 2078 2771 2401 
Q 2534 2725 2094 2725 
Q 1647 2725 1412 2412 
Q 1178 2100 1178 1509 
Q 1178 888 1415 553 
Q 1653 219 2094 219 
z
M 1075 2569 
Q 1288 2803 1556 2918 
Q 1825 3034 2163 3034 
Q 2859 3034 3264 2615 
Q 3669 2197 3669 1472 
Q 3669 763 3233 336 
Q 2797 -91 2069 -91 
Q 1278 -91 853 498 
Q 428 1088 428 2181 
Q 428 3406 931 4078 
Q 1434 4750 2350 4750 
Q 2597 4750 2869 4703 
Q 3141 4656 3425 4563 
L 3425 3794 
L 3072 3794 
Q 3034 4109 2831 4275 
Q 2628 4441 2284 4441 
Q 1678 4441 1381 3981 
Q 1084 3522 1075 2569 
z
" transform="scale(0.015625)"/>
       </defs>
       <use xlink:href="#DejaVuSerif-30"/>
       <use xlink:href="#DejaVuSerif-2e" transform="translate(63.623047 0)"/>
       <use xlink:href="#DejaVuSerif-36" transform="translate(95.410156 0)"/>
      </g>
     </g>
    </g>
    <g id="ytick_7">
     <g id="line2d_18">
      <path d="M 43.181969 100.409373 
L 258.225044 100.409373 
" clip-path="url(#p5d35f4ad7f)" style="fill: none; stroke: #b0b0b0; stroke-opacity: 0.25; stroke-width: 0.8; stroke-linecap: square"/>
     </g>
     <g id="line2d_19">
      <g>
       <use xlink:href="#mab547f9226" x="43.181969" y="100.409373" style="stroke: #000000; stroke-width: 0.8"/>
      </g>
     </g>
     <g id="text_7">
      <!-- 0.7 -->
      <g transform="translate(23.459469 103.448748) scale(0.08 -0.08)">
       <defs>
        <path id="DejaVuSerif-37" d="M 3609 4347 
L 1784 0 
L 1319 0 
L 3059 4153 
L 903 4153 
L 903 3578 
L 538 3578 
L 538 4666 
L 3609 4666 
L 3609 4347 
z
" transform="scale(0.015625)"/>
       </defs>
       <use xlink:href="#DejaVuSerif-30"/>
       <use xlink:href="#DejaVuSerif-2e" transform="translate(63.623047 0)"/>
       <use xlink:href="#DejaVuSerif-37" transform="translate(95.410156 0)"/>
      </g>
     </g>
    </g>
    <g id="ytick_8">
     <g id="line2d_20">
      <path d="M 43.181969 81.058424 
L 258.225044 81.058424 
" clip-path="url(#p5d35f4ad7f)" style="fill: none; stroke: #b0b0b0; stroke-opacity: 0.25; stroke-width: 0.8; stroke-linecap: square"/>
     </g>
     <g id="line2d_21">
      <g>
       <use xlink:href="#mab547f9226" x="43.181969" y="81.058424" style="stroke: #000000; stroke-width: 0.8"/>
      </g>
     </g>
     <g id="text_8">
      <!-- 0.8 -->
      <g transform="translate(23.459469 84.097799) scale(0.08 -0.08)">
       <defs>
        <path id="DejaVuSerif-38" d="M 2981 1275 
Q 2981 1775 2732 2051 
Q 2484 2328 2034 2328 
Q 1584 2328 1336 2051 
Q 1088 1775 1088 1275 
Q 1088 772 1336 495 
Q 1584 219 2034 219 
Q 2484 219 2732 495 
Q 2981 772 2981 1275 
z
M 2853 3541 
Q 2853 3966 2637 4203 
Q 2422 4441 2034 4441 
Q 1650 4441 1433 4203 
Q 1216 3966 1216 3541 
Q 1216 3113 1433 2875 
Q 1650 2638 2034 2638 
Q 2422 2638 2637 2875 
Q 2853 3113 2853 3541 
z
M 2516 2484 
Q 3047 2413 3344 2092 
Q 3641 1772 3641 1275 
Q 3641 619 3225 264 
Q 2809 -91 2034 -91 
Q 1263 -91 845 264 
Q 428 619 428 1275 
Q 428 1772 725 2092 
Q 1022 2413 1556 2484 
Q 1084 2569 832 2842 
Q 581 3116 581 3541 
Q 581 4103 968 4426 
Q 1356 4750 2034 4750 
Q 2713 4750 3100 4426 
Q 3488 4103 3488 3541 
Q 3488 3116 3236 2842 
Q 2984 2569 2516 2484 
z
" transform="scale(0.015625)"/>
       </defs>
       <use xlink:href="#DejaVuSerif-30"/>
       <use xlink:href="#DejaVuSerif-2e" transform="translate(63.623047 0)"/>
       <use xlink:href="#DejaVuSerif-38" transform="translate(95.410156 0)"/>
      </g>
     </g>
    </g>
    <g id="ytick_9">
     <g id="line2d_22">
      <path d="M 43.181969 61.707475 
L 258.225044 61.707475 
" clip-path="url(#p5d35f4ad7f)" style="fill: none; stroke: #b0b0b0; stroke-opacity: 0.25; stroke-width: 0.8; stroke-linecap: square"/>
     </g>
     <g id="line2d_23">
      <g>
       <use xlink:href="#mab547f9226" x="43.181969" y="61.707475" style="stroke: #000000; stroke-width: 0.8"/>
      </g>
     </g>
     <g id="text_9">
      <!-- 0.9 -->
      <g transform="translate(23.459469 64.74685) scale(0.08 -0.08)">
       <defs>
        <path id="DejaVuSerif-39" d="M 2994 2091 
Q 2784 1856 2512 1740 
Q 2241 1625 1900 1625 
Q 1206 1625 804 2044 
Q 403 2463 403 3188 
Q 403 3897 839 4323 
Q 1275 4750 2003 4750 
Q 2794 4750 3217 4161 
Q 3641 3572 3641 2478 
Q 3641 1253 3137 581 
Q 2634 -91 1722 -91 
Q 1475 -91 1203 -44 
Q 931 3 647 97 
L 647 872 
L 997 872 
Q 1038 556 1241 387 
Q 1444 219 1784 219 
Q 2391 219 2687 676 
Q 2984 1134 2994 2091 
z
M 1978 4441 
Q 1534 4441 1298 4117 
Q 1063 3794 1063 3188 
Q 1063 2581 1298 2256 
Q 1534 1931 1978 1931 
Q 2422 1931 2658 2245 
Q 2894 2559 2894 3150 
Q 2894 3772 2656 4106 
Q 2419 4441 1978 4441 
z
" transform="scale(0.015625)"/>
       </defs>
       <use xlink:href="#DejaVuSerif-30"/>
       <use xlink:href="#DejaVuSerif-2e" transform="translate(63.623047 0)"/>
       <use xlink:href="#DejaVuSerif-39" transform="translate(95.410156 0)"/>
      </g>
     </g>
    </g>
    <g id="text_10">
     <!-- Blocking probability -->
     <g transform="translate(17.459781 182.413082) rotate(-90) scale(0.09 -0.09)">
      <defs>
       <path id="DejaVuSerif-42" d="M 1581 331 
L 2516 331 
Q 3078 331 3337 575 
Q 3597 819 3597 1350 
Q 3597 1878 3339 2120 
Q 3081 2363 2516 2363 
L 1581 2363 
L 1581 331 
z
M 1581 2694 
L 2375 2694 
Q 2888 2694 3123 2891 
Q 3359 3088 3359 3513 
Q 3359 3941 3123 4136 
Q 2888 4331 2375 4331 
L 1581 4331 
L 1581 2694 
z
M 353 0 
L 353 331 
L 947 331 
L 947 4331 
L 353 4331 
L 353 4666 
L 2656 4666 
Q 3363 4666 3720 4377 
Q 4078 4088 4078 3513 
Q 4078 3097 3829 2850 
Q 3581 2603 3103 2547 
Q 3697 2472 4005 2167 
Q 4313 1863 4313 1350 
Q 4313 656 3875 328 
Q 3438 0 2509 0 
L 353 0 
z
" transform="scale(0.015625)"/>
       <path id="DejaVuSerif-6c" d="M 1313 331 
L 1856 331 
L 1856 0 
L 184 0 
L 184 331 
L 738 331 
L 738 4531 
L 184 4531 
L 184 4863 
L 1313 4863 
L 1313 331 
z
" transform="scale(0.015625)"/>
       <path id="DejaVuSerif-6f" d="M 1925 219 
Q 2388 219 2623 584 
Q 2859 950 2859 1663 
Q 2859 2375 2623 2739 
Q 2388 3103 1925 3103 
Q 1463 3103 1227 2739 
Q 991 2375 991 1663 
Q 991 950 1228 584 
Q 1466 219 1925 219 
z
M 1925 -91 
Q 1200 -91 759 389 
Q 319 869 319 1663 
Q 319 2456 758 2934 
Q 1197 3413 1925 3413 
Q 2653 3413 3092 2934 
Q 3531 2456 3531 1663 
Q 3531 869 3092 389 
Q 2653 -91 1925 -91 
z
" transform="scale(0.015625)"/>
       <path id="DejaVuSerif-63" d="M 3291 997 
Q 3169 466 2822 187 
Q 2475 -91 1925 -91 
Q 1200 -91 759 389 
Q 319 869 319 1663 
Q 319 2459 759 2936 
Q 1200 3413 1925 3413 
Q 2241 3413 2553 3339 
Q 2866 3266 3181 3116 
L 3181 2266 
L 2847 2266 
Q 2781 2703 2561 2903 
Q 2341 3103 1931 3103 
Q 1466 3103 1228 2742 
Q 991 2381 991 1663 
Q 991 944 1227 581 
Q 1463 219 1931 219 
Q 2303 219 2525 412 
Q 2747 606 2828 997 
L 3291 997 
z
" transform="scale(0.015625)"/>
       <path id="DejaVuSerif-6b" d="M 1831 0 
L 219 0 
L 219 331 
L 738 331 
L 738 4531 
L 184 4531 
L 184 4863 
L 1313 4863 
L 1313 1697 
L 2713 2988 
L 2234 2988 
L 2234 3322 
L 3738 3322 
L 3738 2988 
L 3169 2988 
L 2181 2075 
L 3444 331 
L 3922 331 
L 3922 0 
L 2284 0 
L 2284 331 
L 2759 331 
L 1766 1697 
L 1313 1275 
L 1313 331 
L 1831 331 
L 1831 0 
z
" transform="scale(0.015625)"/>
       <path id="DejaVuSerif-69" d="M 622 4353 
Q 622 4497 726 4603 
Q 831 4709 978 4709 
Q 1122 4709 1226 4603 
Q 1331 4497 1331 4353 
Q 1331 4206 1228 4103 
Q 1125 4000 978 4000 
Q 831 4000 726 4103 
Q 622 4206 622 4353 
z
M 1356 331 
L 1900 331 
L 1900 0 
L 231 0 
L 231 331 
L 781 331 
L 781 2988 
L 231 2988 
L 231 3322 
L 1356 3322 
L 1356 331 
z
" transform="scale(0.015625)"/>
       <path id="DejaVuSerif-6e" d="M 263 0 
L 263 331 
L 781 331 
L 781 2988 
L 231 2988 
L 231 3322 
L 1356 3322 
L 1356 2731 
Q 1516 3069 1770 3241 
Q 2025 3413 2363 3413 
Q 2913 3413 3172 3097 
Q 3431 2781 3431 2113 
L 3431 331 
L 3944 331 
L 3944 0 
L 2356 0 
L 2356 331 
L 2853 331 
L 2853 1931 
Q 2853 2541 2703 2767 
Q 2553 2994 2175 2994 
Q 1775 2994 1565 2701 
Q 1356 2409 1356 1850 
L 1356 331 
L 1856 331 
L 1856 0 
L 263 0 
z
" transform="scale(0.015625)"/>
       <path id="DejaVuSerif-67" d="M 3359 2988 
L 3359 72 
Q 3359 -644 2965 -1033 
Q 2572 -1422 1844 -1422 
Q 1516 -1422 1216 -1362 
Q 916 -1303 641 -1184 
L 641 -488 
L 941 -488 
Q 997 -813 1206 -963 
Q 1416 -1113 1806 -1113 
Q 2313 -1113 2548 -827 
Q 2784 -541 2784 72 
L 2784 519 
Q 2616 206 2355 57 
Q 2094 -91 1709 -91 
Q 1097 -91 708 395 
Q 319 881 319 1663 
Q 319 2444 706 2928 
Q 1094 3413 1709 3413 
Q 2094 3413 2355 3264 
Q 2616 3116 2784 2803 
L 2784 3322 
L 3909 3322 
L 3909 2988 
L 3359 2988 
z
M 2784 1825 
Q 2784 2422 2554 2737 
Q 2325 3053 1888 3053 
Q 1444 3053 1217 2703 
Q 991 2353 991 1663 
Q 991 975 1217 622 
Q 1444 269 1888 269 
Q 2325 269 2554 583 
Q 2784 897 2784 1497 
L 2784 1825 
z
" transform="scale(0.015625)"/>
       <path id="DejaVuSerif-20" transform="scale(0.015625)"/>
       <path id="DejaVuSerif-70" d="M 1313 1825 
L 1313 1497 
Q 1313 897 1542 583 
Q 1772 269 2209 269 
Q 2650 269 2876 622 
Q 3103 975 3103 1663 
Q 3103 2353 2876 2703 
Q 2650 3053 2209 3053 
Q 1772 3053 1542 2737 
Q 1313 2422 1313 1825 
z
M 738 2988 
L 184 2988 
L 184 3322 
L 1313 3322 
L 1313 2803 
Q 1481 3116 1742 3264 
Q 2003 3413 2388 3413 
Q 3000 3413 3387 2928 
Q 3775 2444 3775 1663 
Q 3775 881 3387 395 
Q 3000 -91 2388 -91 
Q 2003 -91 1742 57 
Q 1481 206 1313 519 
L 1313 -997 
L 1856 -997 
L 1856 -1331 
L 184 -1331 
L 184 -997 
L 738 -997 
L 738 2988 
z
" transform="scale(0.015625)"/>
       <path id="DejaVuSerif-72" d="M 3059 3328 
L 3059 2497 
L 2728 2497 
Q 2713 2744 2591 2866 
Q 2469 2988 2234 2988 
Q 1809 2988 1582 2694 
Q 1356 2400 1356 1850 
L 1356 331 
L 2022 331 
L 2022 0 
L 263 0 
L 263 331 
L 781 331 
L 781 2994 
L 231 2994 
L 231 3322 
L 1356 3322 
L 1356 2731 
Q 1525 3078 1790 3245 
Q 2056 3413 2438 3413 
Q 2578 3413 2733 3391 
Q 2888 3369 3059 3328 
z
" transform="scale(0.015625)"/>
       <path id="DejaVuSerif-62" d="M 738 331 
L 738 4531 
L 184 4531 
L 184 4863 
L 1313 4863 
L 1313 2803 
Q 1481 3116 1742 3264 
Q 2003 3413 2388 3413 
Q 3000 3413 3387 2928 
Q 3775 2444 3775 1663 
Q 3775 881 3387 395 
Q 3000 -91 2388 -91 
Q 2003 -91 1742 57 
Q 1481 206 1313 519 
L 1313 0 
L 184 0 
L 184 331 
L 738 331 
z
M 1313 1497 
Q 1313 897 1542 583 
Q 1772 269 2209 269 
Q 2650 269 2876 622 
Q 3103 975 3103 1663 
Q 3103 2353 2876 2703 
Q 2650 3053 2209 3053 
Q 1772 3053 1542 2737 
Q 1313 2422 1313 1825 
L 1313 1497 
z
" transform="scale(0.015625)"/>
       <path id="DejaVuSerif-61" d="M 2547 1044 
L 2547 1747 
L 1806 1747 
Q 1378 1747 1168 1562 
Q 959 1378 959 997 
Q 959 650 1171 447 
Q 1384 244 1747 244 
Q 2106 244 2326 466 
Q 2547 688 2547 1044 
z
M 3122 2075 
L 3122 331 
L 3634 331 
L 3634 0 
L 2547 0 
L 2547 359 
Q 2356 128 2106 18 
Q 1856 -91 1522 -91 
Q 969 -91 644 203 
Q 319 497 319 997 
Q 319 1513 691 1797 
Q 1063 2081 1741 2081 
L 2547 2081 
L 2547 2309 
Q 2547 2688 2317 2895 
Q 2088 3103 1672 3103 
Q 1328 3103 1125 2947 
Q 922 2791 872 2484 
L 575 2484 
L 575 3156 
Q 875 3284 1158 3348 
Q 1441 3413 1709 3413 
Q 2400 3413 2761 3070 
Q 3122 2728 3122 2075 
z
" transform="scale(0.015625)"/>
       <path id="DejaVuSerif-74" d="M 691 2988 
L 184 2988 
L 184 3322 
L 691 3322 
L 691 4353 
L 1269 4353 
L 1269 3322 
L 2350 3322 
L 2350 2988 
L 1269 2988 
L 1269 878 
Q 1269 456 1350 337 
Q 1431 219 1650 219 
Q 1875 219 1978 351 
Q 2081 484 2088 781 
L 2522 781 
Q 2497 328 2275 118 
Q 2053 -91 1600 -91 
Q 1103 -91 897 129 
Q 691 350 691 878 
L 691 2988 
z
" transform="scale(0.015625)"/>
       <path id="DejaVuSerif-79" d="M 1381 -609 
L 1600 -56 
L 359 2988 
L -19 2988 
L -19 3322 
L 1509 3322 
L 1509 2988 
L 978 2988 
L 1913 703 
L 2847 2988 
L 2350 2988 
L 2350 3322 
L 3597 3322 
L 3597 2988 
L 3225 2988 
L 1703 -750 
Q 1547 -1138 1356 -1280 
Q 1166 -1422 819 -1422 
Q 672 -1422 517 -1397 
Q 363 -1372 206 -1325 
L 206 -691 
L 500 -691 
Q 519 -903 608 -995 
Q 697 -1088 884 -1088 
Q 1056 -1088 1161 -992 
Q 1266 -897 1381 -609 
z
" transform="scale(0.015625)"/>
      </defs>
      <use xlink:href="#DejaVuSerif-42"/>
      <use xlink:href="#DejaVuSerif-6c" transform="translate(73.486328 0)"/>
      <use xlink:href="#DejaVuSerif-6f" transform="translate(105.46875 0)"/>
      <use xlink:href="#DejaVuSerif-63" transform="translate(165.673828 0)"/>
      <use xlink:href="#DejaVuSerif-6b" transform="translate(221.679688 0)"/>
      <use xlink:href="#DejaVuSerif-69" transform="translate(282.275391 0)"/>
      <use xlink:href="#DejaVuSerif-6e" transform="translate(314.257812 0)"/>
      <use xlink:href="#DejaVuSerif-67" transform="translate(378.662109 0)"/>
      <use xlink:href="#DejaVuSerif-20" transform="translate(442.675781 0)"/>
      <use xlink:href="#DejaVuSerif-70" transform="translate(474.462891 0)"/>
      <use xlink:href="#DejaVuSerif-72" transform="translate(538.476562 0)"/>
      <use xlink:href="#DejaVuSerif-6f" transform="translate(586.279297 0)"/>
      <use xlink:href="#DejaVuSerif-62" transform="translate(646.484375 0)"/>
      <use xlink:href="#DejaVuSerif-61" transform="translate(710.498047 0)"/>
      <use xlink:href="#DejaVuSerif-62" transform="translate(770.117188 0)"/>
      <use xlink:href="#DejaVuSerif-69" transform="translate(834.130859 0)"/>
      <use xlink:href="#DejaVuSerif-6c" transform="translate(866.113281 0)"/>
      <use xlink:href="#DejaVuSerif-69" transform="translate(898.095703 0)"/>
      <use xlink:href="#DejaVuSerif-74" transform="translate(930.078125 0)"/>
      <use xlink:href="#DejaVuSerif-79" transform="translate(970.263672 0)"/>
     </g>
    </g>
   </g>
   <g id="FillBetweenPolyCollection_1">
    <path d="M 45.870007 211.752155 
L 45.870007 212.040484 
L 61.998238 181.756249 
L 88.878622 142.967916 
L 142.639391 96.518542 
L 250.160928 60.068449 
L 250.160928 59.756899 
L 250.160928 59.756899 
L 142.639391 96.225698 
L 88.878622 142.792467 
L 61.998238 181.222162 
L 45.870007 211.752155 
z
" clip-path="url(#p5d35f4ad7f)" style="fill: #1f77b4; fill-opacity: 0.18"/>
   </g>
   <g id="line2d_24">
    <path d="M 45.870007 212.040484 
L 61.998238 181.756249 
L 88.878622 142.937599 
L 142.639391 96.518542 
L 250.160928 60.068449 
" clip-path="url(#p5d35f4ad7f)" style="fill: none; stroke: #1f77b4; stroke-width: 2; stroke-linecap: square"/>
    <defs>
     <path id="me86192bcda" d="M 0 2.5 
C 0.663008 2.5 1.29895 2.236584 1.767767 1.767767 
C 2.236584 1.29895 2.5 0.663008 2.5 0 
C 2.5 -0.663008 2.236584 -1.29895 1.767767 -1.767767 
C 1.29895 -2.236584 0.663008 -2.5 0 -2.5 
C -0.663008 -2.5 -1.29895 -2.236584 -1.767767 -1.767767 
C -2.236584 -1.29895 -2.5 -0.663008 -2.5 0 
C -2.5 0.663008 -2.236584 1.29895 -1.767767 1.767767 
C -1.29895 2.236584 -0.663008 2.5 0 2.5 
z
" style="stroke: #1f77b4"/>
    </defs>
    <g clip-path="url(#p5d35f4ad7f)">
     <use xlink:href="#me86192bcda" x="45.870007" y="212.040484" style="fill: #1f77b4; stroke: #1f77b4"/>
     <use xlink:href="#me86192bcda" x="61.998238" y="181.756249" style="fill: #1f77b4; stroke: #1f77b4"/>
     <use xlink:href="#me86192bcda" x="88.878622" y="142.937599" style="fill: #1f77b4; stroke: #1f77b4"/>
     <use xlink:href="#me86192bcda" x="142.639391" y="96.518542" style="fill: #1f77b4; stroke: #1f77b4"/>
     <use xlink:href="#me86192bcda" x="250.160928" y="60.068449" style="fill: #1f77b4; stroke: #1f77b4"/>
    </g>
   </g>
   <g id="patch_3">
    <path d="M 43.181969 220.385258 
L 43.181969 52.032 
" style="fill: none; stroke: #000000; stroke-width: 0.8; stroke-linejoin: miter; stroke-linecap: square"/>
   </g>
   <g id="patch_4">
    <path d="M 43.181969 220.385258 
L 258.225044 220.385258 
" style="fill: none; stroke: #000000; stroke-width: 0.8; stroke-linejoin: miter; stroke-linecap: square"/>
   </g>
   <g id="text_11">
    <!-- (a) -->
    <g transform="translate(47.48283 62.237659) scale(0.09 -0.09)">
     <defs>
      <path id="DejaVuSerif-Bold-28" d="M 2694 -997 
Q 1641 -606 1122 122 
Q 603 850 603 1931 
Q 603 3013 1115 3731 
Q 1628 4450 2694 4863 
L 2694 4488 
Q 2200 4188 1983 3598 
Q 1766 3009 1766 1931 
Q 1766 856 1983 267 
Q 2200 -322 2694 -622 
L 2694 -997 
z
" transform="scale(0.015625)"/>
      <path id="DejaVuSerif-Bold-61" d="M 3525 2041 
L 3525 378 
L 4000 378 
L 4000 0 
L 2419 0 
L 2419 422 
Q 2200 159 1931 34 
Q 1663 -91 1319 -91 
Q 809 -91 536 182 
Q 263 456 263 966 
Q 263 1525 655 1803 
Q 1047 2081 1838 2081 
L 2419 2081 
L 2419 2278 
Q 2419 2681 2228 2873 
Q 2038 3066 1638 3066 
Q 1306 3066 1126 2930 
Q 947 2794 872 2484 
L 519 2484 
L 519 3200 
Q 816 3306 1134 3359 
Q 1453 3413 1806 3413 
Q 2697 3413 3111 3081 
Q 3525 2750 3525 2041 
z
M 2419 1044 
L 2419 1709 
L 2003 1709 
Q 1694 1709 1528 1540 
Q 1363 1372 1363 1056 
Q 1363 741 1483 584 
Q 1603 428 1850 428 
Q 2106 428 2262 597 
Q 2419 766 2419 1044 
z
" transform="scale(0.015625)"/>
      <path id="DejaVuSerif-Bold-29" d="M 325 -997 
L 325 -622 
Q 819 -322 1036 267 
Q 1253 856 1253 1931 
Q 1253 3009 1036 3598 
Q 819 4188 325 4488 
L 325 4863 
Q 1391 4450 1905 3731 
Q 2419 3013 2419 1931 
Q 2419 850 1898 122 
Q 1378 -606 325 -997 
z
" transform="scale(0.015625)"/>
     </defs>
     <use xlink:href="#DejaVuSerif-Bold-28"/>
     <use xlink:href="#DejaVuSerif-Bold-61" transform="translate(47.314453 0)"/>
     <use xlink:href="#DejaVuSerif-Bold-29" transform="translate(112.109375 0)"/>
    </g>
   </g>
   <g id="text_12">
    <!-- band = min–max across algorithms -->
    <g transform="translate(132.36462 208.773188) scale(0.068 -0.068)">
     <defs>
      <path id="DejaVuSerif-64" d="M 3359 331 
L 3909 331 
L 3909 0 
L 2784 0 
L 2784 519 
Q 2616 206 2355 57 
Q 2094 -91 1709 -91 
Q 1097 -91 708 395 
Q 319 881 319 1663 
Q 319 2444 706 2928 
Q 1094 3413 1709 3413 
Q 2094 3413 2355 3264 
Q 2616 3116 2784 2803 
L 2784 4531 
L 2241 4531 
L 2241 4863 
L 3359 4863 
L 3359 331 
z
M 2784 1497 
L 2784 1825 
Q 2784 2422 2554 2737 
Q 2325 3053 1888 3053 
Q 1444 3053 1217 2703 
Q 991 2353 991 1663 
Q 991 975 1217 622 
Q 1444 269 1888 269 
Q 2325 269 2554 583 
Q 2784 897 2784 1497 
z
" transform="scale(0.015625)"/>
      <path id="DejaVuSerif-3d" d="M 678 2894 
L 4684 2894 
L 4684 2394 
L 678 2394 
L 678 2894 
z
M 678 1619 
L 4684 1619 
L 4684 1119 
L 678 1119 
L 678 1619 
z
" transform="scale(0.015625)"/>
      <path id="DejaVuSerif-6d" d="M 3316 2675 
Q 3481 3041 3739 3227 
Q 3997 3413 4341 3413 
Q 4863 3413 5119 3089 
Q 5375 2766 5375 2113 
L 5375 331 
L 5894 331 
L 5894 0 
L 4300 0 
L 4300 331 
L 4800 331 
L 4800 2047 
Q 4800 2556 4650 2772 
Q 4500 2988 4153 2988 
Q 3769 2988 3567 2697 
Q 3366 2406 3366 1850 
L 3366 331 
L 3866 331 
L 3866 0 
L 2291 0 
L 2291 331 
L 2791 331 
L 2791 2069 
Q 2791 2566 2641 2777 
Q 2491 2988 2144 2988 
Q 1759 2988 1557 2697 
Q 1356 2406 1356 1850 
L 1356 331 
L 1856 331 
L 1856 0 
L 263 0 
L 263 331 
L 781 331 
L 781 2994 
L 231 2994 
L 231 3322 
L 1356 3322 
L 1356 2731 
Q 1516 3063 1762 3238 
Q 2009 3413 2322 3413 
Q 2709 3413 2968 3220 
Q 3228 3028 3316 2675 
z
" transform="scale(0.015625)"/>
      <path id="DejaVuSerif-2013" d="M 281 1906 
L 2919 1906 
L 2919 1491 
L 281 1491 
L 281 1906 
z
" transform="scale(0.015625)"/>
      <path id="DejaVuSerif-78" d="M 1863 2028 
L 2559 2988 
L 2113 2988 
L 2113 3322 
L 3391 3322 
L 3391 2988 
L 2950 2988 
L 2059 1759 
L 3097 331 
L 3531 331 
L 3531 0 
L 1997 0 
L 1997 331 
L 2419 331 
L 1697 1325 
L 972 331 
L 1403 331 
L 1403 0 
L 141 0 
L 141 331 
L 581 331 
L 1497 1594 
L 488 2988 
L 78 2988 
L 78 3322 
L 1563 3322 
L 1563 2988 
L 1166 2988 
L 1863 2028 
z
" transform="scale(0.015625)"/>
      <path id="DejaVuSerif-73" d="M 359 184 
L 359 959 
L 691 959 
Q 703 588 923 403 
Q 1144 219 1575 219 
Q 1963 219 2166 364 
Q 2369 509 2369 788 
Q 2369 1006 2220 1140 
Q 2072 1275 1594 1428 
L 1178 1569 
Q 750 1706 558 1912 
Q 366 2119 366 2438 
Q 366 2894 700 3153 
Q 1034 3413 1625 3413 
Q 1888 3413 2178 3344 
Q 2469 3275 2778 3144 
L 2778 2419 
L 2447 2419 
Q 2434 2741 2221 2922 
Q 2009 3103 1644 3103 
Q 1281 3103 1095 2975 
Q 909 2847 909 2591 
Q 909 2381 1050 2254 
Q 1191 2128 1613 1997 
L 2069 1856 
Q 2541 1709 2748 1489 
Q 2956 1269 2956 922 
Q 2956 450 2595 179 
Q 2234 -91 1600 -91 
Q 1278 -91 972 -22 
Q 666 47 359 184 
z
" transform="scale(0.015625)"/>
      <path id="DejaVuSerif-68" d="M 263 0 
L 263 331 
L 781 331 
L 781 4531 
L 231 4531 
L 231 4863 
L 1356 4863 
L 1356 2731 
Q 1516 3069 1770 3241 
Q 2025 3413 2363 3413 
Q 2913 3413 3172 3097 
Q 3431 2781 3431 2113 
L 3431 331 
L 3944 331 
L 3944 0 
L 2356 0 
L 2356 331 
L 2853 331 
L 2853 1931 
Q 2853 2541 2704 2764 
Q 2556 2988 2175 2988 
Q 1775 2988 1565 2697 
Q 1356 2406 1356 1850 
L 1356 331 
L 1856 331 
L 1856 0 
L 263 0 
z
" transform="scale(0.015625)"/>
     </defs>
     <use xlink:href="#DejaVuSerif-62"/>
     <use xlink:href="#DejaVuSerif-61" transform="translate(64.013672 0)"/>
     <use xlink:href="#DejaVuSerif-6e" transform="translate(123.632812 0)"/>
     <use xlink:href="#DejaVuSerif-64" transform="translate(188.037109 0)"/>
     <use xlink:href="#DejaVuSerif-20" transform="translate(252.050781 0)"/>
     <use xlink:href="#DejaVuSerif-3d" transform="translate(283.837891 0)"/>
     <use xlink:href="#DejaVuSerif-20" transform="translate(367.626953 0)"/>
     <use xlink:href="#DejaVuSerif-6d" transform="translate(399.414062 0)"/>
     <use xlink:href="#DejaVuSerif-69" transform="translate(494.238281 0)"/>
     <use xlink:href="#DejaVuSerif-6e" transform="translate(526.220703 0)"/>
     <use xlink:href="#DejaVuSerif-2013" transform="translate(590.625 0)"/>
     <use xlink:href="#DejaVuSerif-6d" transform="translate(640.625 0)"/>
     <use xlink:href="#DejaVuSerif-61" transform="translate(735.449219 0)"/>
     <use xlink:href="#DejaVuSerif-78" transform="translate(795.068359 0)"/>
     <use xlink:href="#DejaVuSerif-20" transform="translate(851.464844 0)"/>
     <use xlink:href="#DejaVuSerif-61" transform="translate(883.251953 0)"/>
     <use xlink:href="#DejaVuSerif-63" transform="translate(942.871094 0)"/>
     <use xlink:href="#DejaVuSerif-72" transform="translate(998.876953 0)"/>
     <use xlink:href="#DejaVuSerif-6f" transform="translate(1046.679688 0)"/>
     <use xlink:href="#DejaVuSerif-73" transform="translate(1106.884766 0)"/>
     <use xlink:href="#DejaVuSerif-73" transform="translate(1158.203125 0)"/>
     <use xlink:href="#DejaVuSerif-20" transform="translate(1209.521484 0)"/>
     <use xlink:href="#DejaVuSerif-61" transform="translate(1241.308594 0)"/>
     <use xlink:href="#DejaVuSerif-6c" transform="translate(1300.927734 0)"/>
     <use xlink:href="#DejaVuSerif-67" transform="translate(1332.910156 0)"/>
     <use xlink:href="#DejaVuSerif-6f" transform="translate(1396.923828 0)"/>
     <use xlink:href="#DejaVuSerif-72" transform="translate(1457.128906 0)"/>
     <use xlink:href="#DejaVuSerif-69" transform="translate(1504.931641 0)"/>
     <use xlink:href="#DejaVuSerif-74" transform="translate(1536.914062 0)"/>
     <use xlink:href="#DejaVuSerif-68" transform="translate(1577.099609 0)"/>
     <use xlink:href="#DejaVuSerif-6d" transform="translate(1641.503906 0)"/>
     <use xlink:href="#DejaVuSerif-73" transform="translate(1736.328125 0)"/>
    </g>
   </g>
   <g id="text_13">
    <!-- Mesh-16 -->
    <g transform="translate(127.032944 45.032) scale(0.108 -0.108)">
     <defs>
      <path id="DejaVuSerif-4d" d="M 353 0 
L 353 331 
L 947 331 
L 947 4331 
L 319 4331 
L 319 4666 
L 1678 4666 
L 3316 1344 
L 4953 4666 
L 6228 4666 
L 6228 4331 
L 5606 4331 
L 5606 331 
L 6203 331 
L 6203 0 
L 4378 0 
L 4378 331 
L 4972 331 
L 4972 3938 
L 3372 684 
L 2931 684 
L 1331 3938 
L 1331 331 
L 1925 331 
L 1925 0 
L 353 0 
z
" transform="scale(0.015625)"/>
      <path id="DejaVuSerif-65" d="M 3469 1600 
L 991 1600 
L 991 1575 
Q 991 903 1244 561 
Q 1497 219 1991 219 
Q 2369 219 2611 417 
Q 2853 616 2950 1006 
L 3413 1006 
Q 3275 459 2904 184 
Q 2534 -91 1931 -91 
Q 1203 -91 761 389 
Q 319 869 319 1663 
Q 319 2450 753 2931 
Q 1188 3413 1894 3413 
Q 2647 3413 3050 2948 
Q 3453 2484 3469 1600 
z
M 2791 1931 
Q 2772 2513 2545 2808 
Q 2319 3103 1894 3103 
Q 1497 3103 1269 2806 
Q 1041 2509 991 1931 
L 2791 1931 
z
" transform="scale(0.015625)"/>
      <path id="DejaVuSerif-2d" d="M 281 1959 
L 1881 1959 
L 1881 1472 
L 281 1472 
L 281 1959 
z
" transform="scale(0.015625)"/>
     </defs>
     <use xlink:href="#DejaVuSerif-4d"/>
     <use xlink:href="#DejaVuSerif-65" transform="translate(102.392578 0)"/>
     <use xlink:href="#DejaVuSerif-73" transform="translate(161.572266 0)"/>
     <use xlink:href="#DejaVuSerif-68" transform="translate(212.890625 0)"/>
     <use xlink:href="#DejaVuSerif-2d" transform="translate(277.294922 0)"/>
     <use xlink:href="#DejaVuSerif-31" transform="translate(311.083984 0)"/>
     <use xlink:href="#DejaVuSerif-36" transform="translate(374.707031 0)"/>
    </g>
   </g>
  </g>
  <g id="axes_2">
   <g id="patch_5">
    <path d="M 287.725044 220.385258 
L 502.768119 220.385258 
L 502.768119 52.032 
L 287.725044 52.032 
z
" style="fill: #ffffff"/>
   </g>
   <g id="matplotlib.axis_3">
    <g id="xtick_6">
     <g id="line2d_25">
      <g>
       <use xlink:href="#m17b54ee764" x="290.413082" y="220.385258" style="stroke: #000000; stroke-width: 0.8"/>
      </g>
     </g>
    </g>
    <g id="xtick_7">
     <g id="line2d_26">
      <g>
       <use xlink:href="#m17b54ee764" x="306.541313" y="220.385258" style="stroke: #000000; stroke-width: 0.8"/>
      </g>
     </g>
    </g>
    <g id="xtick_8">
     <g id="line2d_27">
      <g>
       <use xlink:href="#m17b54ee764" x="333.421697" y="220.385258" style="stroke: #000000; stroke-width: 0.8"/>
      </g>
     </g>
    </g>
    <g id="xtick_9">
     <g id="line2d_28">
      <g>
       <use xlink:href="#m17b54ee764" x="387.182466" y="220.385258" style="stroke: #000000; stroke-width: 0.8"/>
      </g>
     </g>
    </g>
    <g id="xtick_10">
     <g id="line2d_29">
      <g>
       <use xlink:href="#m17b54ee764" x="494.704003" y="220.385258" style="stroke: #000000; stroke-width: 0.8"/>
      </g>
     </g>
    </g>
   </g>
   <g id="matplotlib.axis_4">
    <g id="ytick_10">
     <g id="line2d_30">
      <path d="M 287.725044 216.515069 
L 502.768119 216.515069 
" clip-path="url(#p67a2a30230)" style="fill: none; stroke: #b0b0b0; stroke-opacity: 0.25; stroke-width: 0.8; stroke-linecap: square"/>
     </g>
     <g id="line2d_31">
      <g>
       <use xlink:href="#mab547f9226" x="287.725044" y="216.515069" style="stroke: #000000; stroke-width: 0.8"/>
      </g>
     </g>
     <g id="text_14">
      <!-- 0.1 -->
      <g transform="translate(268.002544 219.554444) scale(0.08 -0.08)">
       <use xlink:href="#DejaVuSerif-30"/>
       <use xlink:href="#DejaVuSerif-2e" transform="translate(63.623047 0)"/>
       <use xlink:href="#DejaVuSerif-31" transform="translate(95.410156 0)"/>
      </g>
     </g>
    </g>
    <g id="ytick_11">
     <g id="line2d_32">
      <path d="M 287.725044 197.164119 
L 502.768119 197.164119 
" clip-path="url(#p67a2a30230)" style="fill: none; stroke: #b0b0b0; stroke-opacity: 0.25; stroke-width: 0.8; stroke-linecap: square"/>
     </g>
     <g id="line2d_33">
      <g>
       <use xlink:href="#mab547f9226" x="287.725044" y="197.164119" style="stroke: #000000; stroke-width: 0.8"/>
      </g>
     </g>
     <g id="text_15">
      <!-- 0.2 -->
      <g transform="translate(268.002544 200.203494) scale(0.08 -0.08)">
       <use xlink:href="#DejaVuSerif-30"/>
       <use xlink:href="#DejaVuSerif-2e" transform="translate(63.623047 0)"/>
       <use xlink:href="#DejaVuSerif-32" transform="translate(95.410156 0)"/>
      </g>
     </g>
    </g>
    <g id="ytick_12">
     <g id="line2d_34">
      <path d="M 287.725044 177.81317 
L 502.768119 177.81317 
" clip-path="url(#p67a2a30230)" style="fill: none; stroke: #b0b0b0; stroke-opacity: 0.25; stroke-width: 0.8; stroke-linecap: square"/>
     </g>
     <g id="line2d_35">
      <g>
       <use xlink:href="#mab547f9226" x="287.725044" y="177.81317" style="stroke: #000000; stroke-width: 0.8"/>
      </g>
     </g>
     <g id="text_16">
      <!-- 0.3 -->
      <g transform="translate(268.002544 180.852545) scale(0.08 -0.08)">
       <use xlink:href="#DejaVuSerif-30"/>
       <use xlink:href="#DejaVuSerif-2e" transform="translate(63.623047 0)"/>
       <use xlink:href="#DejaVuSerif-33" transform="translate(95.410156 0)"/>
      </g>
     </g>
    </g>
    <g id="ytick_13">
     <g id="line2d_36">
      <path d="M 287.725044 158.462221 
L 502.768119 158.462221 
" clip-path="url(#p67a2a30230)" style="fill: none; stroke: #b0b0b0; stroke-opacity: 0.25; stroke-width: 0.8; stroke-linecap: square"/>
     </g>
     <g id="line2d_37">
      <g>
       <use xlink:href="#mab547f9226" x="287.725044" y="158.462221" style="stroke: #000000; stroke-width: 0.8"/>
      </g>
     </g>
     <g id="text_17">
      <!-- 0.4 -->
      <g transform="translate(268.002544 161.501596) scale(0.08 -0.08)">
       <use xlink:href="#DejaVuSerif-30"/>
       <use xlink:href="#DejaVuSerif-2e" transform="translate(63.623047 0)"/>
       <use xlink:href="#DejaVuSerif-34" transform="translate(95.410156 0)"/>
      </g>
     </g>
    </g>
    <g id="ytick_14">
     <g id="line2d_38">
      <path d="M 287.725044 139.111272 
L 502.768119 139.111272 
" clip-path="url(#p67a2a30230)" style="fill: none; stroke: #b0b0b0; stroke-opacity: 0.25; stroke-width: 0.8; stroke-linecap: square"/>
     </g>
     <g id="line2d_39">
      <g>
       <use xlink:href="#mab547f9226" x="287.725044" y="139.111272" style="stroke: #000000; stroke-width: 0.8"/>
      </g>
     </g>
     <g id="text_18">
      <!-- 0.5 -->
      <g transform="translate(268.002544 142.150647) scale(0.08 -0.08)">
       <use xlink:href="#DejaVuSerif-30"/>
       <use xlink:href="#DejaVuSerif-2e" transform="translate(63.623047 0)"/>
       <use xlink:href="#DejaVuSerif-35" transform="translate(95.410156 0)"/>
      </g>
     </g>
    </g>
    <g id="ytick_15">
     <g id="line2d_40">
      <path d="M 287.725044 119.760322 
L 502.768119 119.760322 
" clip-path="url(#p67a2a30230)" style="fill: none; stroke: #b0b0b0; stroke-opacity: 0.25; stroke-width: 0.8; stroke-linecap: square"/>
     </g>
     <g id="line2d_41">
      <g>
       <use xlink:href="#mab547f9226" x="287.725044" y="119.760322" style="stroke: #000000; stroke-width: 0.8"/>
      </g>
     </g>
     <g id="text_19">
      <!-- 0.6 -->
      <g transform="translate(268.002544 122.799697) scale(0.08 -0.08)">
       <use xlink:href="#DejaVuSerif-30"/>
       <use xlink:href="#DejaVuSerif-2e" transform="translate(63.623047 0)"/>
       <use xlink:href="#DejaVuSerif-36" transform="translate(95.410156 0)"/>
      </g>
     </g>
    </g>
    <g id="ytick_16">
     <g id="line2d_42">
      <path d="M 287.725044 100.409373 
L 502.768119 100.409373 
" clip-path="url(#p67a2a30230)" style="fill: none; stroke: #b0b0b0; stroke-opacity: 0.25; stroke-width: 0.8; stroke-linecap: square"/>
     </g>
     <g id="line2d_43">
      <g>
       <use xlink:href="#mab547f9226" x="287.725044" y="100.409373" style="stroke: #000000; stroke-width: 0.8"/>
      </g>
     </g>
     <g id="text_20">
      <!-- 0.7 -->
      <g transform="translate(268.002544 103.448748) scale(0.08 -0.08)">
       <use xlink:href="#DejaVuSerif-30"/>
       <use xlink:href="#DejaVuSerif-2e" transform="translate(63.623047 0)"/>
       <use xlink:href="#DejaVuSerif-37" transform="translate(95.410156 0)"/>
      </g>
     </g>
    </g>
    <g id="ytick_17">
     <g id="line2d_44">
      <path d="M 287.725044 81.058424 
L 502.768119 81.058424 
" clip-path="url(#p67a2a30230)" style="fill: none; stroke: #b0b0b0; stroke-opacity: 0.25; stroke-width: 0.8; stroke-linecap: square"/>
     </g>
     <g id="line2d_45">
      <g>
       <use xlink:href="#mab547f9226" x="287.725044" y="81.058424" style="stroke: #000000; stroke-width: 0.8"/>
      </g>
     </g>
     <g id="text_21">
      <!-- 0.8 -->
      <g transform="translate(268.002544 84.097799) scale(0.08 -0.08)">
       <use xlink:href="#DejaVuSerif-30"/>
       <use xlink:href="#DejaVuSerif-2e" transform="translate(63.623047 0)"/>
       <use xlink:href="#DejaVuSerif-38" transform="translate(95.410156 0)"/>
      </g>
     </g>
    </g>
    <g id="ytick_18">
     <g id="line2d_46">
      <path d="M 287.725044 61.707475 
L 502.768119 61.707475 
" clip-path="url(#p67a2a30230)" style="fill: none; stroke: #b0b0b0; stroke-opacity: 0.25; stroke-width: 0.8; stroke-linecap: square"/>
     </g>
     <g id="line2d_47">
      <g>
       <use xlink:href="#mab547f9226" x="287.725044" y="61.707475" style="stroke: #000000; stroke-width: 0.8"/>
      </g>
     </g>
     <g id="text_22">
      <!-- 0.9 -->
      <g transform="translate(268.002544 64.74685) scale(0.08 -0.08)">
       <use xlink:href="#DejaVuSerif-30"/>
       <use xlink:href="#DejaVuSerif-2e" transform="translate(63.623047 0)"/>
       <use xlink:href="#DejaVuSerif-39" transform="translate(95.410156 0)"/>
      </g>
     </g>
    </g>
   </g>
   <g id="FillBetweenPolyCollection_2">
    <path d="M 290.413082 208.362514 
L 290.413082 208.547638 
L 306.541313 176.341208 
L 333.421697 138.100507 
L 387.182466 95.342005 
L 494.704003 61.81971 
L 494.704003 61.660387 
L 494.704003 61.660387 
L 387.182466 94.963371 
L 333.421697 137.903127 
L 306.541313 176.014177 
L 290.413082 208.362514 
z
" clip-path="url(#p67a2a30230)" style="fill: #1f77b4; fill-opacity: 0.18"/>
   </g>
   <g id="line2d_48">
    <path d="M 290.413082 208.447658 
L 306.541313 176.183175 
L 333.421697 138.100507 
L 387.182466 95.342005 
L 494.704003 61.762302 
" clip-path="url(#p67a2a30230)" style="fill: none; stroke: #1f77b4; stroke-width: 2; stroke-linecap: square"/>
    <g clip-path="url(#p67a2a30230)">
     <use xlink:href="#me86192bcda" x="290.413082" y="208.447658" style="fill: #1f77b4; stroke: #1f77b4"/>
     <use xlink:href="#me86192bcda" x="306.541313" y="176.183175" style="fill: #1f77b4; stroke: #1f77b4"/>
     <use xlink:href="#me86192bcda" x="333.421697" y="138.100507" style="fill: #1f77b4; stroke: #1f77b4"/>
     <use xlink:href="#me86192bcda" x="387.182466" y="95.342005" style="fill: #1f77b4; stroke: #1f77b4"/>
     <use xlink:href="#me86192bcda" x="494.704003" y="61.762302" style="fill: #1f77b4; stroke: #1f77b4"/>
    </g>
   </g>
   <g id="patch_6">
    <path d="M 287.725044 220.385258 
L 287.725044 52.032 
" style="fill: none; stroke: #000000; stroke-width: 0.8; stroke-linejoin: miter; stroke-linecap: square"/>
   </g>
   <g id="patch_7">
    <path d="M 287.725044 220.385258 
L 502.768119 220.385258 
" style="fill: none; stroke: #000000; stroke-width: 0.8; stroke-linejoin: miter; stroke-linecap: square"/>
   </g>
   <g id="text_23">
    <!-- (b) -->
    <g transform="translate(292.025905 62.237659) scale(0.09 -0.09)">
     <defs>
      <path id="DejaVuSerif-Bold-62" d="M 622 378 
L 622 4488 
L 147 4488 
L 147 4863 
L 1728 4863 
L 1728 2900 
Q 1869 3159 2106 3286 
Q 2344 3413 2694 3413 
Q 3403 3413 3811 2945 
Q 4219 2478 4219 1663 
Q 4219 847 3811 378 
Q 3403 -91 2694 -91 
Q 2344 -91 2106 36 
Q 1869 163 1728 422 
L 1728 0 
L 147 0 
L 147 378 
L 622 378 
z
M 1728 1497 
Q 1728 916 1876 656 
Q 2025 397 2356 397 
Q 2697 397 2836 672 
Q 2975 947 2975 1663 
Q 2975 2378 2836 2651 
Q 2697 2925 2356 2925 
Q 2025 2925 1876 2665 
Q 1728 2406 1728 1825 
L 1728 1497 
z
" transform="scale(0.015625)"/>
     </defs>
     <use xlink:href="#DejaVuSerif-Bold-28"/>
     <use xlink:href="#DejaVuSerif-Bold-62" transform="translate(47.314453 0)"/>
     <use xlink:href="#DejaVuSerif-Bold-29" transform="translate(117.236328 0)"/>
    </g>
   </g>
   <g id="text_24">
    <!-- band = min–max across algorithms -->
    <g transform="translate(376.907695 208.773188) scale(0.068 -0.068)">
     <use xlink:href="#DejaVuSerif-62"/>
     <use xlink:href="#DejaVuSerif-61" transform="translate(64.013672 0)"/>
     <use xlink:href="#DejaVuSerif-6e" transform="translate(123.632812 0)"/>
     <use xlink:href="#DejaVuSerif-64" transform="translate(188.037109 0)"/>
     <use xlink:href="#DejaVuSerif-20" transform="translate(252.050781 0)"/>
     <use xlink:href="#DejaVuSerif-3d" transform="translate(283.837891 0)"/>
     <use xlink:href="#DejaVuSerif-20" transform="translate(367.626953 0)"/>
     <use xlink:href="#DejaVuSerif-6d" transform="translate(399.414062 0)"/>
     <use xlink:href="#DejaVuSerif-69" transform="translate(494.238281 0)"/>
     <use xlink:href="#DejaVuSerif-6e" transform="translate(526.220703 0)"/>
     <use xlink:href="#DejaVuSerif-2013" transform="translate(590.625 0)"/>
     <use xlink:href="#DejaVuSerif-6d" transform="translate(640.625 0)"/>
     <use xlink:href="#DejaVuSerif-61" transform="translate(735.449219 0)"/>
     <use xlink:href="#DejaVuSerif-78" transform="translate(795.068359 0)"/>
     <use xlink:href="#DejaVuSerif-20" transform="translate(851.464844 0)"/>
     <use xlink:href="#DejaVuSerif-61" transform="translate(883.251953 0)"/>
     <use xlink:href="#DejaVuSerif-63" transform="translate(942.871094 0)"/>
     <use xlink:href="#DejaVuSerif-72" transform="translate(998.876953 0)"/>
     <use xlink:href="#DejaVuSerif-6f" transform="translate(1046.679688 0)"/>
     <use xlink:href="#DejaVuSerif-73" transform="translate(1106.884766 0)"/>
     <use xlink:href="#DejaVuSerif-73" transform="translate(1158.203125 0)"/>
     <use xlink:href="#DejaVuSerif-20" transform="translate(1209.521484 0)"/>
     <use xlink:href="#DejaVuSerif-61" transform="translate(1241.308594 0)"/>
     <use xlink:href="#DejaVuSerif-6c" transform="translate(1300.927734 0)"/>
     <use xlink:href="#DejaVuSerif-67" transform="translate(1332.910156 0)"/>
     <use xlink:href="#DejaVuSerif-6f" transform="translate(1396.923828 0)"/>
     <use xlink:href="#DejaVuSerif-72" transform="translate(1457.128906 0)"/>
     <use xlink:href="#DejaVuSerif-69" transform="translate(1504.931641 0)"/>
     <use xlink:href="#DejaVuSerif-74" transform="translate(1536.914062 0)"/>
     <use xlink:href="#DejaVuSerif-68" transform="translate(1577.099609 0)"/>
     <use xlink:href="#DejaVuSerif-6d" transform="translate(1641.503906 0)"/>
     <use xlink:href="#DejaVuSerif-73" transform="translate(1736.328125 0)"/>
    </g>
   </g>
   <g id="text_25">
    <!-- Irregular-12 -->
    <g transform="translate(361.596144 45.032) scale(0.108 -0.108)">
     <defs>
      <path id="DejaVuSerif-49" d="M 1581 331 
L 2175 331 
L 2175 0 
L 353 0 
L 353 331 
L 947 331 
L 947 4331 
L 353 4331 
L 353 4666 
L 2175 4666 
L 2175 4331 
L 1581 4331 
L 1581 331 
z
" transform="scale(0.015625)"/>
      <path id="DejaVuSerif-75" d="M 2266 3322 
L 3341 3322 
L 3341 331 
L 3884 331 
L 3884 0 
L 2766 0 
L 2766 588 
Q 2606 256 2353 82 
Q 2100 -91 1766 -91 
Q 1213 -91 952 223 
Q 691 538 691 1209 
L 691 2988 
L 172 2988 
L 172 3322 
L 1269 3322 
L 1269 1388 
Q 1269 781 1417 556 
Q 1566 331 1947 331 
Q 2347 331 2556 625 
Q 2766 919 2766 1478 
L 2766 2988 
L 2266 2988 
L 2266 3322 
z
" transform="scale(0.015625)"/>
     </defs>
     <use xlink:href="#DejaVuSerif-49"/>
     <use xlink:href="#DejaVuSerif-72" transform="translate(39.501953 0)"/>
     <use xlink:href="#DejaVuSerif-72" transform="translate(87.304688 0)"/>
     <use xlink:href="#DejaVuSerif-65" transform="translate(135.107422 0)"/>
     <use xlink:href="#DejaVuSerif-67" transform="translate(194.287109 0)"/>
     <use xlink:href="#DejaVuSerif-75" transform="translate(258.300781 0)"/>
     <use xlink:href="#DejaVuSerif-6c" transform="translate(322.705078 0)"/>
     <use xlink:href="#DejaVuSerif-61" transform="translate(354.6875 0)"/>
     <use xlink:href="#DejaVuSerif-72" transform="translate(414.306641 0)"/>
     <use xlink:href="#DejaVuSerif-2d" transform="translate(462.109375 0)"/>
     <use xlink:href="#DejaVuSerif-31" transform="translate(495.898438 0)"/>
     <use xlink:href="#DejaVuSerif-32" transform="translate(559.521484 0)"/>
    </g>
   </g>
  </g>
  <g id="axes_3">
   <g id="patch_8">
    <path d="M 43.181969 314.976 
L 258.225044 314.976 
L 258.225044 233.605258 
L 43.181969 233.605258 
z
" style="fill: #ffffff"/>
   </g>
   <g id="matplotlib.axis_5">
    <g id="xtick_11">
     <g id="line2d_49">
      <g>
       <use xlink:href="#m17b54ee764" x="45.870007" y="314.976" style="stroke: #000000; stroke-width: 0.8"/>
      </g>
     </g>
     <g id="text_26">
      <!-- 2 -->
      <g transform="translate(43.325007 328.05475) scale(0.08 -0.08)">
       <use xlink:href="#DejaVuSerif-32"/>
      </g>
     </g>
    </g>
    <g id="xtick_12">
     <g id="line2d_50">
      <g>
       <use xlink:href="#m17b54ee764" x="61.998238" y="314.976" style="stroke: #000000; stroke-width: 0.8"/>
      </g>
     </g>
     <g id="text_27">
      <!-- 5 -->
      <g transform="translate(59.453238 328.05475) scale(0.08 -0.08)">
       <use xlink:href="#DejaVuSerif-35"/>
      </g>
     </g>
    </g>
    <g id="xtick_13">
     <g id="line2d_51">
      <g>
       <use xlink:href="#m17b54ee764" x="88.878622" y="314.976" style="stroke: #000000; stroke-width: 0.8"/>
      </g>
     </g>
     <g id="text_28">
      <!-- 10 -->
      <g transform="translate(83.788622 328.05475) scale(0.08 -0.08)">
       <use xlink:href="#DejaVuSerif-31"/>
       <use xlink:href="#DejaVuSerif-30" transform="translate(63.623047 0)"/>
      </g>
     </g>
    </g>
    <g id="xtick_14">
     <g id="line2d_52">
      <g>
       <use xlink:href="#m17b54ee764" x="142.639391" y="314.976" style="stroke: #000000; stroke-width: 0.8"/>
      </g>
     </g>
     <g id="text_29">
      <!-- 20 -->
      <g transform="translate(137.549391 328.05475) scale(0.08 -0.08)">
       <use xlink:href="#DejaVuSerif-32"/>
       <use xlink:href="#DejaVuSerif-30" transform="translate(63.623047 0)"/>
      </g>
     </g>
    </g>
    <g id="xtick_15">
     <g id="line2d_53">
      <g>
       <use xlink:href="#m17b54ee764" x="250.160928" y="314.976" style="stroke: #000000; stroke-width: 0.8"/>
      </g>
     </g>
     <g id="text_30">
      <!-- 40 -->
      <g transform="translate(245.070928 328.05475) scale(0.08 -0.08)">
       <use xlink:href="#DejaVuSerif-34"/>
       <use xlink:href="#DejaVuSerif-30" transform="translate(63.623047 0)"/>
      </g>
     </g>
    </g>
    <g id="text_31">
     <!-- Offered load (requests/s) -->
     <g transform="translate(93.7321 340.557094) scale(0.09 -0.09)">
      <defs>
       <path id="DejaVuSerif-4f" d="M 2625 244 
Q 3391 244 3781 770 
Q 4172 1297 4172 2328 
Q 4172 3363 3781 3889 
Q 3391 4416 2625 4416 
Q 1856 4416 1465 3889 
Q 1075 3363 1075 2328 
Q 1075 1297 1465 770 
Q 1856 244 2625 244 
z
M 2625 -91 
Q 2150 -91 1751 65 
Q 1353 222 1050 525 
Q 700 875 529 1319 
Q 359 1763 359 2328 
Q 359 2894 529 3339 
Q 700 3784 1050 4134 
Q 1356 4441 1750 4595 
Q 2144 4750 2625 4750 
Q 3641 4750 4266 4084 
Q 4891 3419 4891 2328 
Q 4891 1769 4719 1320 
Q 4547 872 4197 525 
Q 3891 219 3497 64 
Q 3103 -91 2625 -91 
z
" transform="scale(0.015625)"/>
       <path id="DejaVuSerif-66" d="M 2753 4078 
L 2450 4078 
Q 2447 4313 2317 4434 
Q 2188 4556 1941 4556 
Q 1619 4556 1487 4379 
Q 1356 4203 1356 3750 
L 1356 3322 
L 2284 3322 
L 2284 2988 
L 1356 2988 
L 1356 331 
L 2094 331 
L 2094 0 
L 231 0 
L 231 331 
L 781 331 
L 781 2988 
L 231 2988 
L 231 3322 
L 781 3322 
L 781 3738 
Q 781 4294 1070 4578 
Q 1359 4863 1919 4863 
Q 2128 4863 2337 4825 
Q 2547 4788 2753 4709 
L 2753 4078 
z
" transform="scale(0.015625)"/>
       <path id="DejaVuSerif-28" d="M 2041 -997 
Q 1281 -656 893 83 
Q 506 822 506 1931 
Q 506 3044 893 3783 
Q 1281 4522 2041 4863 
L 2041 4556 
Q 1559 4225 1350 3623 
Q 1141 3022 1141 1931 
Q 1141 844 1350 242 
Q 1559 -359 2041 -691 
L 2041 -997 
z
" transform="scale(0.015625)"/>
       <path id="DejaVuSerif-71" d="M 3359 2988 
L 3359 -997 
L 3909 -997 
L 3909 -1331 
L 2241 -1331 
L 2241 -997 
L 2784 -997 
L 2784 519 
Q 2616 206 2355 57 
Q 2094 -91 1709 -91 
Q 1097 -91 708 395 
Q 319 881 319 1663 
Q 319 2444 706 2928 
Q 1094 3413 1709 3413 
Q 2094 3413 2355 3264 
Q 2616 3116 2784 2803 
L 2784 3322 
L 3909 3322 
L 3909 2988 
L 3359 2988 
z
M 2784 1825 
Q 2784 2422 2554 2737 
Q 2325 3053 1888 3053 
Q 1444 3053 1217 2703 
Q 991 2353 991 1663 
Q 991 975 1217 622 
Q 1444 269 1888 269 
Q 2325 269 2554 583 
Q 2784 897 2784 1497 
L 2784 1825 
z
" transform="scale(0.015625)"/>
       <path id="DejaVuSerif-2f" d="M 1656 4666 
L 2156 4666 
L 500 -594 
L 0 -594 
L 1656 4666 
z
" transform="scale(0.015625)"/>
       <path id="DejaVuSerif-29" d="M 453 -997 
L 453 -691 
Q 934 -359 1145 242 
Q 1356 844 1356 1931 
Q 1356 3022 1145 3623 
Q 934 4225 453 4556 
L 453 4863 
Q 1216 4522 1603 3783 
Q 1991 3044 1991 1931 
Q 1991 822 1603 83 
Q 1216 -656 453 -997 
z
" transform="scale(0.015625)"/>
      </defs>
      <use xlink:href="#DejaVuSerif-4f"/>
      <use xlink:href="#DejaVuSerif-66" transform="translate(81.982422 0)"/>
      <use xlink:href="#DejaVuSerif-66" transform="translate(118.994141 0)"/>
      <use xlink:href="#DejaVuSerif-65" transform="translate(156.005859 0)"/>
      <use xlink:href="#DejaVuSerif-72" transform="translate(215.185547 0)"/>
      <use xlink:href="#DejaVuSerif-65" transform="translate(262.988281 0)"/>
      <use xlink:href="#DejaVuSerif-64" transform="translate(322.167969 0)"/>
      <use xlink:href="#DejaVuSerif-20" transform="translate(386.181641 0)"/>
      <use xlink:href="#DejaVuSerif-6c" transform="translate(417.96875 0)"/>
      <use xlink:href="#DejaVuSerif-6f" transform="translate(449.951172 0)"/>
      <use xlink:href="#DejaVuSerif-61" transform="translate(510.15625 0)"/>
      <use xlink:href="#DejaVuSerif-64" transform="translate(569.775391 0)"/>
      <use xlink:href="#DejaVuSerif-20" transform="translate(633.789062 0)"/>
      <use xlink:href="#DejaVuSerif-28" transform="translate(665.576172 0)"/>
      <use xlink:href="#DejaVuSerif-72" transform="translate(704.589844 0)"/>
      <use xlink:href="#DejaVuSerif-65" transform="translate(752.392578 0)"/>
      <use xlink:href="#DejaVuSerif-71" transform="translate(811.572266 0)"/>
      <use xlink:href="#DejaVuSerif-75" transform="translate(875.585938 0)"/>
      <use xlink:href="#DejaVuSerif-65" transform="translate(939.990234 0)"/>
      <use xlink:href="#DejaVuSerif-73" transform="translate(999.169922 0)"/>
      <use xlink:href="#DejaVuSerif-74" transform="translate(1050.488281 0)"/>
      <use xlink:href="#DejaVuSerif-73" transform="translate(1090.673828 0)"/>
      <use xlink:href="#DejaVuSerif-2f" transform="translate(1141.992188 0)"/>
      <use xlink:href="#DejaVuSerif-73" transform="translate(1175.683594 0)"/>
      <use xlink:href="#DejaVuSerif-29" transform="translate(1227.001953 0)"/>
     </g>
    </g>
   </g>
   <g id="matplotlib.axis_6">
    <g id="ytick_19">
     <g id="line2d_54">
      <path d="M 43.181969 298.500362 
L 258.225044 298.500362 
" clip-path="url(#p7be848aa2b)" style="fill: none; stroke: #b0b0b0; stroke-opacity: 0.2; stroke-width: 0.8; stroke-linecap: square"/>
     </g>
     <g id="line2d_55">
      <g>
       <use xlink:href="#mab547f9226" x="43.181969" y="298.500362" style="stroke: #000000; stroke-width: 0.8"/>
      </g>
     </g>
     <g id="text_32">
      <!-- 0 -->
      <g transform="translate(31.091969 301.539737) scale(0.08 -0.08)">
       <use xlink:href="#DejaVuSerif-30"/>
      </g>
     </g>
    </g>
    <g id="ytick_20">
     <g id="line2d_56">
      <path d="M 43.181969 279.901336 
L 258.225044 279.901336 
" clip-path="url(#p7be848aa2b)" style="fill: none; stroke: #b0b0b0; stroke-opacity: 0.2; stroke-width: 0.8; stroke-linecap: square"/>
     </g>
     <g id="line2d_57">
      <g>
       <use xlink:href="#mab547f9226" x="43.181969" y="279.901336" style="stroke: #000000; stroke-width: 0.8"/>
      </g>
     </g>
     <g id="text_33">
      <!-- 1 -->
      <g transform="translate(31.091969 282.940711) scale(0.08 -0.08)">
       <use xlink:href="#DejaVuSerif-31"/>
      </g>
     </g>
    </g>
    <g id="ytick_21">
     <g id="line2d_58">
      <path d="M 43.181969 261.302309 
L 258.225044 261.302309 
" clip-path="url(#p7be848aa2b)" style="fill: none; stroke: #b0b0b0; stroke-opacity: 0.2; stroke-width: 0.8; stroke-linecap: square"/>
     </g>
     <g id="line2d_59">
      <g>
       <use xlink:href="#mab547f9226" x="43.181969" y="261.302309" style="stroke: #000000; stroke-width: 0.8"/>
      </g>
     </g>
     <g id="text_34">
      <!-- 2 -->
      <g transform="translate(31.091969 264.341684) scale(0.08 -0.08)">
       <use xlink:href="#DejaVuSerif-32"/>
      </g>
     </g>
    </g>
    <g id="ytick_22">
     <g id="line2d_60">
      <path d="M 43.181969 242.703282 
L 258.225044 242.703282 
" clip-path="url(#p7be848aa2b)" style="fill: none; stroke: #b0b0b0; stroke-opacity: 0.2; stroke-width: 0.8; stroke-linecap: square"/>
     </g>
     <g id="line2d_61">
      <g>
       <use xlink:href="#mab547f9226" x="43.181969" y="242.703282" style="stroke: #000000; stroke-width: 0.8"/>
      </g>
     </g>
     <g id="text_35">
      <!-- 3 -->
      <g transform="translate(31.091969 245.742657) scale(0.08 -0.08)">
       <use xlink:href="#DejaVuSerif-33"/>
      </g>
     </g>
    </g>
    <g id="text_36">
     <!-- $\Delta$ vs Key-aware -->
     <g transform="translate(13.840312 309.210629) rotate(-90) scale(0.09 -0.09)">
      <defs>
       <path id="DejaVuSans-394" d="M 2188 4044 
L 906 525 
L 3472 525 
L 2188 4044 
z
M 50 0 
L 1831 4666 
L 2547 4666 
L 4325 0 
L 50 0 
z
" transform="scale(0.015625)"/>
       <path id="DejaVuSerif-76" d="M 1581 0 
L 359 2988 
L -19 2988 
L -19 3322 
L 1509 3322 
L 1509 2988 
L 978 2988 
L 1913 703 
L 2847 2988 
L 2350 2988 
L 2350 3322 
L 3597 3322 
L 3597 2988 
L 3225 2988 
L 2003 0 
L 1581 0 
z
" transform="scale(0.015625)"/>
       <path id="DejaVuSerif-4b" d="M 353 0 
L 353 331 
L 947 331 
L 947 4331 
L 353 4331 
L 353 4666 
L 2175 4666 
L 2175 4331 
L 1581 4331 
L 1581 2566 
L 3591 4331 
L 3084 4331 
L 3084 4666 
L 4634 4666 
L 4634 4331 
L 4109 4331 
L 2106 2572 
L 4347 331 
L 4878 331 
L 4878 0 
L 3794 0 
L 1581 2216 
L 1581 331 
L 2175 331 
L 2175 0 
L 353 0 
z
" transform="scale(0.015625)"/>
       <path id="DejaVuSerif-77" d="M 3072 3322 
L 3922 728 
L 4672 2988 
L 4191 2988 
L 4191 3322 
L 5394 3322 
L 5394 2988 
L 5025 2988 
L 4038 0 
L 3559 0 
L 2741 2484 
L 1919 0 
L 1459 0 
L 475 2988 
L 103 2988 
L 103 3322 
L 1606 3322 
L 1606 2988 
L 1069 2988 
L 1813 728 
L 2669 3322 
L 3072 3322 
z
" transform="scale(0.015625)"/>
      </defs>
      <use xlink:href="#DejaVuSans-394" transform="translate(0 0.09375)"/>
      <use xlink:href="#DejaVuSerif-20" transform="translate(68.408203 0.09375)"/>
      <use xlink:href="#DejaVuSerif-76" transform="translate(100.195312 0.09375)"/>
      <use xlink:href="#DejaVuSerif-73" transform="translate(156.689453 0.09375)"/>
      <use xlink:href="#DejaVuSerif-20" transform="translate(208.007812 0.09375)"/>
      <use xlink:href="#DejaVuSerif-4b" transform="translate(239.794922 0.09375)"/>
      <use xlink:href="#DejaVuSerif-65" transform="translate(314.501953 0.09375)"/>
      <use xlink:href="#DejaVuSerif-79" transform="translate(373.681641 0.09375)"/>
      <use xlink:href="#DejaVuSerif-2d" transform="translate(430.175781 0.09375)"/>
      <use xlink:href="#DejaVuSerif-61" transform="translate(463.964844 0.09375)"/>
      <use xlink:href="#DejaVuSerif-77" transform="translate(523.583984 0.09375)"/>
      <use xlink:href="#DejaVuSerif-61" transform="translate(609.179688 0.09375)"/>
      <use xlink:href="#DejaVuSerif-72" transform="translate(668.798828 0.09375)"/>
      <use xlink:href="#DejaVuSerif-65" transform="translate(716.601562 0.09375)"/>
     </g>
     <!-- ($\times 10^{-3}$) -->
     <g transform="translate(25.22025 292.110629) rotate(-90) scale(0.09 -0.09)">
      <defs>
       <path id="DejaVuSans-d7" d="M 4488 3438 
L 3059 2003 
L 4488 575 
L 4116 197 
L 2681 1631 
L 1247 197 
L 878 575 
L 2303 2003 
L 878 3438 
L 1247 3816 
L 2681 2381 
L 4116 3816 
L 4488 3438 
z
" transform="scale(0.015625)"/>
       <path id="DejaVuSans-31" d="M 794 531 
L 1825 531 
L 1825 4091 
L 703 3866 
L 703 4441 
L 1819 4666 
L 2450 4666 
L 2450 531 
L 3481 531 
L 3481 0 
L 794 0 
L 794 531 
z
" transform="scale(0.015625)"/>
       <path id="DejaVuSans-30" d="M 2034 4250 
Q 1547 4250 1301 3770 
Q 1056 3291 1056 2328 
Q 1056 1369 1301 889 
Q 1547 409 2034 409 
Q 2525 409 2770 889 
Q 3016 1369 3016 2328 
Q 3016 3291 2770 3770 
Q 2525 4250 2034 4250 
z
M 2034 4750 
Q 2819 4750 3233 4129 
Q 3647 3509 3647 2328 
Q 3647 1150 3233 529 
Q 2819 -91 2034 -91 
Q 1250 -91 836 529 
Q 422 1150 422 2328 
Q 422 3509 836 4129 
Q 1250 4750 2034 4750 
z
" transform="scale(0.015625)"/>
       <path id="DejaVuSans-2212" d="M 678 2272 
L 4684 2272 
L 4684 1741 
L 678 1741 
L 678 2272 
z
" transform="scale(0.015625)"/>
       <path id="DejaVuSans-33" d="M 2597 2516 
Q 3050 2419 3304 2112 
Q 3559 1806 3559 1356 
Q 3559 666 3084 287 
Q 2609 -91 1734 -91 
Q 1441 -91 1130 -33 
Q 819 25 488 141 
L 488 750 
Q 750 597 1062 519 
Q 1375 441 1716 441 
Q 2309 441 2620 675 
Q 2931 909 2931 1356 
Q 2931 1769 2642 2001 
Q 2353 2234 1838 2234 
L 1294 2234 
L 1294 2753 
L 1863 2753 
Q 2328 2753 2575 2939 
Q 2822 3125 2822 3475 
Q 2822 3834 2567 4026 
Q 2313 4219 1838 4219 
Q 1578 4219 1281 4162 
Q 984 4106 628 3988 
L 628 4550 
Q 988 4650 1302 4700 
Q 1616 4750 1894 4750 
Q 2613 4750 3031 4423 
Q 3450 4097 3450 3541 
Q 3450 3153 3228 2886 
Q 3006 2619 2597 2516 
z
" transform="scale(0.015625)"/>
      </defs>
      <use xlink:href="#DejaVuSerif-28" transform="translate(0 0.765625)"/>
      <use xlink:href="#DejaVuSans-d7" transform="translate(39.013672 0.765625)"/>
      <use xlink:href="#DejaVuSans-31" transform="translate(122.802734 0.765625)"/>
      <use xlink:href="#DejaVuSans-30" transform="translate(186.425781 0.765625)"/>
      <use xlink:href="#DejaVuSans-2212" transform="translate(251.005859 39.046875) scale(0.7)"/>
      <use xlink:href="#DejaVuSans-33" transform="translate(309.658203 39.046875) scale(0.7)"/>
      <use xlink:href="#DejaVuSerif-29" transform="translate(356.928711 0.765625)"/>
     </g>
    </g>
   </g>
   <g id="line2d_62">
    <path d="M 45.870007 270.787813 
L 61.998238 281.637245 
L 88.878622 284.551092 
L 142.639391 270.353835 
L 250.160928 268.555929 
" clip-path="url(#p7be848aa2b)" style="fill: none; stroke-dasharray: 10.88,2.72,1.7,2.72; stroke-dashoffset: 0; stroke: #1f77b4; stroke-width: 1.7"/>
    <defs>
     <path id="mab453e86c8" d="M 0 -2.2 
L -2.2 2.2 
L 2.2 2.2 
z
" style="stroke: #1f77b4; stroke-linejoin: miter"/>
    </defs>
    <g clip-path="url(#p7be848aa2b)">
     <use xlink:href="#mab453e86c8" x="45.870007" y="270.787813" style="fill: #1f77b4; stroke: #1f77b4; stroke-linejoin: miter"/>
     <use xlink:href="#mab453e86c8" x="61.998238" y="281.637245" style="fill: #1f77b4; stroke: #1f77b4; stroke-linejoin: miter"/>
     <use xlink:href="#mab453e86c8" x="88.878622" y="284.551092" style="fill: #1f77b4; stroke: #1f77b4; stroke-linejoin: miter"/>
     <use xlink:href="#mab453e86c8" x="142.639391" y="270.353835" style="fill: #1f77b4; stroke: #1f77b4; stroke-linejoin: miter"/>
     <use xlink:href="#mab453e86c8" x="250.160928" y="268.555929" style="fill: #1f77b4; stroke: #1f77b4; stroke-linejoin: miter"/>
    </g>
   </g>
   <g id="line2d_63">
    <path d="M 45.870007 271.469777 
L 61.998238 247.167049 
L 88.878622 301.41421 
L 142.639391 295.958495 
L 250.160928 279.343365 
" clip-path="url(#p7be848aa2b)" style="fill: none; stroke-dasharray: 1.9,3.135; stroke-dashoffset: 0; stroke: #ff7f0e; stroke-width: 1.9"/>
    <defs>
     <path id="m96404a2db3" d="M -0 2.969848 
L 2.969848 0 
L 0 -2.969848 
L -2.969848 -0 
z
" style="stroke: #ff7f0e; stroke-linejoin: miter"/>
    </defs>
    <g clip-path="url(#p7be848aa2b)">
     <use xlink:href="#m96404a2db3" x="45.870007" y="271.469777" style="fill: #ff7f0e; stroke: #ff7f0e; stroke-linejoin: miter"/>
     <use xlink:href="#m96404a2db3" x="61.998238" y="247.167049" style="fill: #ff7f0e; stroke: #ff7f0e; stroke-linejoin: miter"/>
     <use xlink:href="#m96404a2db3" x="88.878622" y="301.41421" style="fill: #ff7f0e; stroke: #ff7f0e; stroke-linejoin: miter"/>
     <use xlink:href="#m96404a2db3" x="142.639391" y="295.958495" style="fill: #ff7f0e; stroke: #ff7f0e; stroke-linejoin: miter"/>
     <use xlink:href="#m96404a2db3" x="250.160928" y="279.343365" style="fill: #ff7f0e; stroke: #ff7f0e; stroke-linejoin: miter"/>
    </g>
   </g>
   <g id="line2d_64">
    <path d="M 43.181969 298.500362 
L 258.225044 298.500362 
" clip-path="url(#p7be848aa2b)" style="fill: none; stroke-dasharray: 2.96,1.28; stroke-dashoffset: 0; stroke: #000000; stroke-opacity: 0.65; stroke-width: 0.8"/>
   </g>
   <g id="patch_9">
    <path d="M 43.181969 314.976 
L 43.181969 233.605258 
" style="fill: none; stroke: #000000; stroke-width: 0.8; stroke-linejoin: miter; stroke-linecap: square"/>
   </g>
   <g id="patch_10">
    <path d="M 43.181969 314.976 
L 258.225044 314.976 
" style="fill: none; stroke: #000000; stroke-width: 0.8; stroke-linejoin: miter; stroke-linecap: square"/>
   </g>
   <g id="text_37">
    <!-- (c) -->
    <g transform="translate(47.48283 246.953512) scale(0.09 -0.09)">
     <defs>
      <path id="DejaVuSerif-Bold-63" d="M 3609 1038 
Q 3491 469 3123 189 
Q 2756 -91 2125 -91 
Q 1238 -91 750 368 
Q 263 828 263 1663 
Q 263 2488 744 2950 
Q 1225 3413 2081 3413 
Q 2428 3413 2781 3347 
Q 3134 3281 3500 3150 
L 3500 2228 
L 3150 2228 
Q 3100 2650 2903 2854 
Q 2706 3059 2350 3059 
Q 1888 3059 1692 2746 
Q 1497 2434 1497 1663 
Q 1497 909 1687 586 
Q 1878 263 2309 263 
Q 2644 263 2845 463 
Q 3047 663 3091 1038 
L 3609 1038 
z
" transform="scale(0.015625)"/>
     </defs>
     <use xlink:href="#DejaVuSerif-Bold-28"/>
     <use xlink:href="#DejaVuSerif-Bold-63" transform="translate(47.314453 0)"/>
     <use xlink:href="#DejaVuSerif-Bold-29" transform="translate(108.203125 0)"/>
    </g>
   </g>
  </g>
  <g id="axes_4">
   <g id="patch_11">
    <path d="M 287.725044 314.976 
L 502.768119 314.976 
L 502.768119 233.605258 
L 287.725044 233.605258 
z
" style="fill: #ffffff"/>
   </g>
   <g id="matplotlib.axis_7">
    <g id="xtick_16">
     <g id="line2d_65">
      <g>
       <use xlink:href="#m17b54ee764" x="290.413082" y="314.976" style="stroke: #000000; stroke-width: 0.8"/>
      </g>
     </g>
     <g id="text_38">
      <!-- 2 -->
      <g transform="translate(287.868082 328.05475) scale(0.08 -0.08)">
       <use xlink:href="#DejaVuSerif-32"/>
      </g>
     </g>
    </g>
    <g id="xtick_17">
     <g id="line2d_66">
      <g>
       <use xlink:href="#m17b54ee764" x="306.541313" y="314.976" style="stroke: #000000; stroke-width: 0.8"/>
      </g>
     </g>
     <g id="text_39">
      <!-- 5 -->
      <g transform="translate(303.996313 328.05475) scale(0.08 -0.08)">
       <use xlink:href="#DejaVuSerif-35"/>
      </g>
     </g>
    </g>
    <g id="xtick_18">
     <g id="line2d_67">
      <g>
       <use xlink:href="#m17b54ee764" x="333.421697" y="314.976" style="stroke: #000000; stroke-width: 0.8"/>
      </g>
     </g>
     <g id="text_40">
      <!-- 10 -->
      <g transform="translate(328.331697 328.05475) scale(0.08 -0.08)">
       <use xlink:href="#DejaVuSerif-31"/>
       <use xlink:href="#DejaVuSerif-30" transform="translate(63.623047 0)"/>
      </g>
     </g>
    </g>
    <g id="xtick_19">
     <g id="line2d_68">
      <g>
       <use xlink:href="#m17b54ee764" x="387.182466" y="314.976" style="stroke: #000000; stroke-width: 0.8"/>
      </g>
     </g>
     <g id="text_41">
      <!-- 20 -->
      <g transform="translate(382.092466 328.05475) scale(0.08 -0.08)">
       <use xlink:href="#DejaVuSerif-32"/>
       <use xlink:href="#DejaVuSerif-30" transform="translate(63.623047 0)"/>
      </g>
     </g>
    </g>
    <g id="xtick_20">
     <g id="line2d_69">
      <g>
       <use xlink:href="#m17b54ee764" x="494.704003" y="314.976" style="stroke: #000000; stroke-width: 0.8"/>
      </g>
     </g>
     <g id="text_42">
      <!-- 40 -->
      <g transform="translate(489.614003 328.05475) scale(0.08 -0.08)">
       <use xlink:href="#DejaVuSerif-34"/>
       <use xlink:href="#DejaVuSerif-30" transform="translate(63.623047 0)"/>
      </g>
     </g>
    </g>
    <g id="text_43">
     <!-- Offered load (requests/s) -->
     <g transform="translate(338.275175 340.557094) scale(0.09 -0.09)">
      <use xlink:href="#DejaVuSerif-4f"/>
      <use xlink:href="#DejaVuSerif-66" transform="translate(81.982422 0)"/>
      <use xlink:href="#DejaVuSerif-66" transform="translate(118.994141 0)"/>
      <use xlink:href="#DejaVuSerif-65" transform="translate(156.005859 0)"/>
      <use xlink:href="#DejaVuSerif-72" transform="translate(215.185547 0)"/>
      <use xlink:href="#DejaVuSerif-65" transform="translate(262.988281 0)"/>
      <use xlink:href="#DejaVuSerif-64" transform="translate(322.167969 0)"/>
      <use xlink:href="#DejaVuSerif-20" transform="translate(386.181641 0)"/>
      <use xlink:href="#DejaVuSerif-6c" transform="translate(417.96875 0)"/>
      <use xlink:href="#DejaVuSerif-6f" transform="translate(449.951172 0)"/>
      <use xlink:href="#DejaVuSerif-61" transform="translate(510.15625 0)"/>
      <use xlink:href="#DejaVuSerif-64" transform="translate(569.775391 0)"/>
      <use xlink:href="#DejaVuSerif-20" transform="translate(633.789062 0)"/>
      <use xlink:href="#DejaVuSerif-28" transform="translate(665.576172 0)"/>
      <use xlink:href="#DejaVuSerif-72" transform="translate(704.589844 0)"/>
      <use xlink:href="#DejaVuSerif-65" transform="translate(752.392578 0)"/>
      <use xlink:href="#DejaVuSerif-71" transform="translate(811.572266 0)"/>
      <use xlink:href="#DejaVuSerif-75" transform="translate(875.585938 0)"/>
      <use xlink:href="#DejaVuSerif-65" transform="translate(939.990234 0)"/>
      <use xlink:href="#DejaVuSerif-73" transform="translate(999.169922 0)"/>
      <use xlink:href="#DejaVuSerif-74" transform="translate(1050.488281 0)"/>
      <use xlink:href="#DejaVuSerif-73" transform="translate(1090.673828 0)"/>
      <use xlink:href="#DejaVuSerif-2f" transform="translate(1141.992188 0)"/>
      <use xlink:href="#DejaVuSerif-73" transform="translate(1175.683594 0)"/>
      <use xlink:href="#DejaVuSerif-29" transform="translate(1227.001953 0)"/>
     </g>
    </g>
   </g>
   <g id="matplotlib.axis_8">
    <g id="ytick_23">
     <g id="line2d_70">
      <path d="M 287.725044 305.00026 
L 502.768119 305.00026 
" clip-path="url(#p6d10543ce7)" style="fill: none; stroke: #b0b0b0; stroke-opacity: 0.2; stroke-width: 0.8; stroke-linecap: square"/>
     </g>
     <g id="line2d_71">
      <g>
       <use xlink:href="#mab547f9226" x="287.725044" y="305.00026" style="stroke: #000000; stroke-width: 0.8"/>
      </g>
     </g>
     <g id="text_44">
      <!-- −1 -->
      <g transform="translate(268.931294 308.039635) scale(0.08 -0.08)">
       <defs>
        <path id="DejaVuSerif-2212" d="M 678 2259 
L 4684 2259 
L 4684 1753 
L 678 1753 
L 678 2259 
z
" transform="scale(0.015625)"/>
       </defs>
       <use xlink:href="#DejaVuSerif-2212"/>
       <use xlink:href="#DejaVuSerif-31" transform="translate(83.789062 0)"/>
      </g>
     </g>
    </g>
    <g id="ytick_24">
     <g id="line2d_72">
      <path d="M 287.725044 285.439986 
L 502.768119 285.439986 
" clip-path="url(#p6d10543ce7)" style="fill: none; stroke: #b0b0b0; stroke-opacity: 0.2; stroke-width: 0.8; stroke-linecap: square"/>
     </g>
     <g id="line2d_73">
      <g>
       <use xlink:href="#mab547f9226" x="287.725044" y="285.439986" style="stroke: #000000; stroke-width: 0.8"/>
      </g>
     </g>
     <g id="text_45">
      <!-- 0 -->
      <g transform="translate(275.635044 288.479361) scale(0.08 -0.08)">
       <use xlink:href="#DejaVuSerif-30"/>
      </g>
     </g>
    </g>
    <g id="ytick_25">
     <g id="line2d_74">
      <path d="M 287.725044 265.879711 
L 502.768119 265.879711 
" clip-path="url(#p6d10543ce7)" style="fill: none; stroke: #b0b0b0; stroke-opacity: 0.2; stroke-width: 0.8; stroke-linecap: square"/>
     </g>
     <g id="line2d_75">
      <g>
       <use xlink:href="#mab547f9226" x="287.725044" y="265.879711" style="stroke: #000000; stroke-width: 0.8"/>
      </g>
     </g>
     <g id="text_46">
      <!-- 1 -->
      <g transform="translate(275.635044 268.919086) scale(0.08 -0.08)">
       <use xlink:href="#DejaVuSerif-31"/>
      </g>
     </g>
    </g>
    <g id="ytick_26">
     <g id="line2d_76">
      <path d="M 287.725044 246.319437 
L 502.768119 246.319437 
" clip-path="url(#p6d10543ce7)" style="fill: none; stroke: #b0b0b0; stroke-opacity: 0.2; stroke-width: 0.8; stroke-linecap: square"/>
     </g>
     <g id="line2d_77">
      <g>
       <use xlink:href="#mab547f9226" x="287.725044" y="246.319437" style="stroke: #000000; stroke-width: 0.8"/>
      </g>
     </g>
     <g id="text_47">
      <!-- 2 -->
      <g transform="translate(275.635044 249.358812) scale(0.08 -0.08)">
       <use xlink:href="#DejaVuSerif-32"/>
      </g>
     </g>
    </g>
   </g>
   <g id="line2d_78">
    <path d="M 290.413082 276.833465 
L 306.541313 268.357346 
L 333.421697 280.680319 
L 387.182466 247.167049 
L 494.704003 275.138241 
" clip-path="url(#p6d10543ce7)" style="fill: none; stroke-dasharray: 10.88,2.72,1.7,2.72; stroke-dashoffset: 0; stroke: #1f77b4; stroke-width: 1.7"/>
    <g clip-path="url(#p6d10543ce7)">
     <use xlink:href="#mab453e86c8" x="290.413082" y="276.833465" style="fill: #1f77b4; stroke: #1f77b4; stroke-linejoin: miter"/>
     <use xlink:href="#mab453e86c8" x="306.541313" y="268.357346" style="fill: #1f77b4; stroke: #1f77b4; stroke-linejoin: miter"/>
     <use xlink:href="#mab453e86c8" x="333.421697" y="280.680319" style="fill: #1f77b4; stroke: #1f77b4; stroke-linejoin: miter"/>
     <use xlink:href="#mab453e86c8" x="387.182466" y="247.167049" style="fill: #1f77b4; stroke: #1f77b4; stroke-linejoin: miter"/>
     <use xlink:href="#mab453e86c8" x="494.704003" y="275.138241" style="fill: #1f77b4; stroke: #1f77b4; stroke-linejoin: miter"/>
    </g>
   </g>
   <g id="line2d_79">
    <path d="M 290.413082 295.546127 
L 306.541313 301.41421 
L 333.421697 265.488506 
L 387.182466 269.987369 
L 494.704003 291.242867 
" clip-path="url(#p6d10543ce7)" style="fill: none; stroke-dasharray: 1.9,3.135; stroke-dashoffset: 0; stroke: #ff7f0e; stroke-width: 1.9"/>
    <g clip-path="url(#p6d10543ce7)">
     <use xlink:href="#m96404a2db3" x="290.413082" y="295.546127" style="fill: #ff7f0e; stroke: #ff7f0e; stroke-linejoin: miter"/>
     <use xlink:href="#m96404a2db3" x="306.541313" y="301.41421" style="fill: #ff7f0e; stroke: #ff7f0e; stroke-linejoin: miter"/>
     <use xlink:href="#m96404a2db3" x="333.421697" y="265.488506" style="fill: #ff7f0e; stroke: #ff7f0e; stroke-linejoin: miter"/>
     <use xlink:href="#m96404a2db3" x="387.182466" y="269.987369" style="fill: #ff7f0e; stroke: #ff7f0e; stroke-linejoin: miter"/>
     <use xlink:href="#m96404a2db3" x="494.704003" y="291.242867" style="fill: #ff7f0e; stroke: #ff7f0e; stroke-linejoin: miter"/>
    </g>
   </g>
   <g id="line2d_80">
    <path d="M 287.725044 285.439986 
L 502.768119 285.439986 
" clip-path="url(#p6d10543ce7)" style="fill: none; stroke-dasharray: 2.96,1.28; stroke-dashoffset: 0; stroke: #000000; stroke-opacity: 0.65; stroke-width: 0.8"/>
   </g>
   <g id="patch_12">
    <path d="M 287.725044 314.976 
L 287.725044 233.605258 
" style="fill: none; stroke: #000000; stroke-width: 0.8; stroke-linejoin: miter; stroke-linecap: square"/>
   </g>
   <g id="patch_13">
    <path d="M 287.725044 314.976 
L 502.768119 314.976 
" style="fill: none; stroke: #000000; stroke-width: 0.8; stroke-linejoin: miter; stroke-linecap: square"/>
   </g>
   <g id="text_48">
    <!-- (d) -->
    <g transform="translate(292.025905 246.953512) scale(0.09 -0.09)">
     <defs>
      <path id="DejaVuSerif-Bold-64" d="M 2747 1497 
L 2747 1825 
Q 2747 2406 2597 2665 
Q 2447 2925 2119 2925 
Q 1775 2925 1636 2651 
Q 1497 2378 1497 1663 
Q 1497 947 1637 672 
Q 1778 397 2119 397 
Q 2447 397 2597 656 
Q 2747 916 2747 1497 
z
M 3853 378 
L 4325 378 
L 4325 0 
L 2747 0 
L 2747 422 
Q 2606 163 2367 36 
Q 2128 -91 1778 -91 
Q 1072 -91 667 378 
Q 263 847 263 1663 
Q 263 2481 667 2947 
Q 1072 3413 1778 3413 
Q 2128 3413 2367 3286 
Q 2606 3159 2747 2900 
L 2747 4488 
L 2272 4488 
L 2272 4863 
L 3853 4863 
L 3853 378 
z
" transform="scale(0.015625)"/>
     </defs>
     <use xlink:href="#DejaVuSerif-Bold-28"/>
     <use xlink:href="#DejaVuSerif-Bold-64" transform="translate(47.314453 0)"/>
     <use xlink:href="#DejaVuSerif-Bold-29" transform="translate(117.236328 0)"/>
    </g>
   </g>
  </g>
  <g id="legend_1">
   <g id="line2d_81">
    <path d="M 196.233119 13.67875 
L 204.233119 13.67875 
L 212.233119 13.67875 
" style="fill: none; stroke-dasharray: 10.88,2.72,1.7,2.72; stroke-dashoffset: 0; stroke: #1f77b4; stroke-width: 1.7"/>
    <g>
     <use xlink:href="#mab453e86c8" x="204.233119" y="13.67875" style="fill: #1f77b4; stroke: #1f77b4; stroke-linejoin: miter"/>
    </g>
   </g>
   <g id="text_49">
    <!-- Random − Key-aware -->
    <g transform="translate(218.633119 16.47875) scale(0.08 -0.08)">
     <defs>
      <path id="DejaVuSerif-52" d="M 3066 2316 
Q 3284 2256 3442 2114 
Q 3600 1972 3725 1716 
L 4403 331 
L 4972 331 
L 4972 0 
L 3872 0 
L 3144 1484 
Q 2934 1916 2759 2042 
Q 2584 2169 2278 2169 
L 1581 2169 
L 1581 331 
L 2241 331 
L 2241 0 
L 353 0 
L 353 331 
L 947 331 
L 947 4331 
L 353 4331 
L 353 4666 
L 2719 4666 
Q 3400 4666 3770 4341 
Q 4141 4016 4141 3419 
Q 4141 2938 3870 2661 
Q 3600 2384 3066 2316 
z
M 1581 2503 
L 2503 2503 
Q 2975 2503 3200 2726 
Q 3425 2950 3425 3419 
Q 3425 3888 3200 4109 
Q 2975 4331 2503 4331 
L 1581 4331 
L 1581 2503 
z
" transform="scale(0.015625)"/>
     </defs>
     <use xlink:href="#DejaVuSerif-52"/>
     <use xlink:href="#DejaVuSerif-61" transform="translate(77.542969 0)"/>
     <use xlink:href="#DejaVuSerif-6e" transform="translate(137.162109 0)"/>
     <use xlink:href="#DejaVuSerif-64" transform="translate(201.566406 0)"/>
     <use xlink:href="#DejaVuSerif-6f" transform="translate(265.580078 0)"/>
     <use xlink:href="#DejaVuSerif-6d" transform="translate(325.785156 0)"/>
     <use xlink:href="#DejaVuSerif-20" transform="translate(420.609375 0)"/>
     <use xlink:href="#DejaVuSerif-2212" transform="translate(452.396484 0)"/>
     <use xlink:href="#DejaVuSerif-20" transform="translate(536.185547 0)"/>
     <use xlink:href="#DejaVuSerif-4b" transform="translate(567.972656 0)"/>
     <use xlink:href="#DejaVuSerif-65" transform="translate(640.054688 0)"/>
     <use xlink:href="#DejaVuSerif-79" transform="translate(699.234375 0)"/>
     <use xlink:href="#DejaVuSerif-2d" transform="translate(755.728516 0)"/>
     <use xlink:href="#DejaVuSerif-61" transform="translate(789.517578 0)"/>
     <use xlink:href="#DejaVuSerif-77" transform="translate(849.136719 0)"/>
     <use xlink:href="#DejaVuSerif-61" transform="translate(934.732422 0)"/>
     <use xlink:href="#DejaVuSerif-72" transform="translate(994.351562 0)"/>
     <use xlink:href="#DejaVuSerif-65" transform="translate(1042.154297 0)"/>
    </g>
   </g>
  </g>
 </g>
 <defs>
  <clipPath id="p5d35f4ad7f">
   <rect x="43.181969" y="52.032" width="215.043075" height="168.353258"/>
  </clipPath>
  <clipPath id="p67a2a30230">
   <rect x="287.725044" y="52.032" width="215.043075" height="168.353258"/>
  </clipPath>
  <clipPath id="p7be848aa2b">
   <rect x="43.181969" y="233.605258" width="215.043075" height="81.370742"/>
  </clipPath>
  <clipPath id="p6d10543ce7">
   <rect x="287.725044" y="233.605258" width="215.043075" height="81.370742"/>
  </clipPath>
 </defs>
</svg>
