<?xml version="1.0" encoding="utf-8" standalone="no"?>
<!DOCTYPE svg PUBLIC "-//W3C//DTD SVG 1.1//EN"
  "http://www.w3.org/Graphics/SVG/1.1/DTD/svg11.dtd">
<svg xmlns:xlink="http://www.w3.org/1999/xlink" width="519.28072pt" height="232.036781pt" viewBox="0 0 519.28072 232.036781" xmlns="http://www.w3.org/2000/svg" version="1.1">
 <metadata>
  <rdf:RDF xmlns:dc="http://purl.org/dc/elements/1.1/" xmlns:cc="http://creativecommons.org/ns#" xmlns:rdf="http://www.w3.org/1999/02/22-rdf-syntax-ns#">
   <cc:Work>
    <dc:type rdf:resource="http://purl.org/dc/dcmitype/StillImage"/>
    <dc:date>2026-04-03T16:41:01.379328</dc:date>
    <dc:format>image/svg+xml</dc:format>
    <dc:creator>
     <cc:Agent>
      <dc:title>Matplotlib v3.6.3, https://matplotlib.org/</dc:title>
     </cc:Agent>
    </dc:creator>
   </cc:Work>
  </rdf:RDF>
 </metadata>
 <defs>
  <style type="text/css">*{stroke-linejoin: round; stroke-linecap: butt}</style>
 </defs>
 <g id="figure_1">
  <g id="patch_1">
   <path d="M 0 232.036781 
L 519.28072 232.036781 
L 519.28072 -0 
L 0 -0 
z
" style="fill: #ffffff"/>
  </g>
  <g id="axes_1">
   <g id="patch_2">
    <path d="M 39.632812 197.256 
L 262.57843 197.256 
L 262.57843 55.056 
L 39.632812 55.056 
z
" style="fill: #ffffff"/>
   </g>
   <g id="matplotlib.axis_1">
    <g id="xtick_1">
     <g id="line2d_1">
      <defs>
       <path id="m851b023985" d="M 0 0 
L 0 3.5 
" style="stroke: #000000; stroke-width: 0.8"/>
      </defs>
      <g>
       <use xlink:href="#m851b023985" x="62.632683" y="197.256" style="stroke: #000000; stroke-width: 0.8"/>
      </g>
     </g>
     <g id="text_1">
      <!-- 0.938 -->
      <g transform="translate(51.181433 210.33475) scale(0.08 -0.08)">
       <defs>
        <path id="DejaVuSerif-30" d="M 2034 219 
Q 2513 219 2750 744 
Q 2988 1269 2988 2328 
Q 2988 3391 2750 3916 
Q 2513 4441 2034 4441 
Q 1556 4441 1318 3916 
Q 1081 3391 1081 2328 
Q 1081 1269 1318 744 
Q 1556 219 2034 219 
z
M 2034 -91 
Q 1275 -91 848 546 
Q 422 1184 422 2328 
Q 422 3475 848 4112 
Q 1275 4750 2034 4750 
Q 2797 4750 3222 4112 
Q 3647 3475 3647 2328 
Q 3647 1184 3222 546 
Q 2797 -91 2034 -91 
z
" transform="scale(0.015625)"/>
        <path id="DejaVuSerif-2e" d="M 603 325 
Q 603 500 722 622 
Q 841 744 1019 744 
Q 1191 744 1312 622 
Q 1434 500 1434 325 
Q 1434 153 1312 31 
Q 1191 -91 1019 -91 
Q 841 -91 722 29 
Q 603 150 603 325 
z
" transform="scale(0.015625)"/>
        <path id="DejaVuSerif-39" d="M 2994 2091 
Q 2784 1856 2512 1740 
Q 2241 1625 1900 1625 
Q 1206 1625 804 2044 
Q 403 2463 403 3188 
Q 403 3897 839 4323 
Q 1275 4750 2003 4750 
Q 2794 4750 3217 4161 
Q 3641 3572 3641 2478 
Q 3641 1253 3137 581 
Q 2634 -91 1722 -91 
Q 1475 -91 1203 -44 
Q 931 3 647 97 
L 647 872 
L 997 872 
Q 1038 556 1241 387 
Q 1444 219 1784 219 
Q 2391 219 2687 676 
Q 2984 1134 2994 2091 
z
M 1978 4441 
Q 1534 4441 1298 4117 
Q 1063 3794 1063 3188 
Q 1063 2581 1298 2256 
Q 1534 1931 1978 1931 
Q 2422 1931 2658 2245 
Q 2894 2559 2894 3150 
Q 2894 3772 2656 4106 
Q 2419 4441 1978 4441 
z
" transform="scale(0.015625)"/>
        <path id="DejaVuSerif-33" d="M 622 4469 
Q 988 4606 1323 4678 
Q 1659 4750 1953 4750 
Q 2638 4750 3022 4454 
Q 3406 4159 3406 3634 
Q 3406 3213 3140 2930 
Q 2875 2647 2388 2547 
Q 2963 2466 3280 2130 
Q 3597 1794 3597 1259 
Q 3597 606 3158 257 
Q 2719 -91 1894 -91 
Q 1528 -91 1179 -12 
Q 831 66 488 225 
L 488 1131 
L 838 1131 
Q 869 681 1141 450 
Q 1413 219 1906 219 
Q 2384 219 2661 495 
Q 2938 772 2938 1253 
Q 2938 1803 2653 2086 
Q 2369 2369 1819 2369 
L 1522 2369 
L 1522 2688 
L 1678 2688 
Q 2225 2688 2498 2914 
Q 2772 3141 2772 3597 
Q 2772 4006 2547 4223 
Q 2322 4441 1900 4441 
Q 1478 4441 1245 4241 
Q 1013 4041 972 3647 
L 622 3647 
L 622 4469 
z
" transform="scale(0.015625)"/>
        <path id="DejaVuSerif-38" d="M 2981 1275 
Q 2981 1775 2732 2051 
Q 2484 2328 2034 2328 
Q 1584 2328 1336 2051 
Q 1088 1775 1088 1275 
Q 1088 772 1336 495 
Q 1584 219 2034 219 
Q 2484 219 2732 495 
Q 2981 772 2981 1275 
z
M 2853 3541 
Q 2853 3966 2637 4203 
Q 2422 4441 2034 4441 
Q 1650 4441 1433 4203 
Q 1216 3966 1216 3541 
Q 1216 3113 1433 2875 
Q 1650 2638 2034 2638 
Q 2422 2638 2637 2875 
Q 2853 3113 2853 3541 
z
M 2516 2484 
Q 3047 2413 3344 2092 
Q 3641 1772 3641 1275 
Q 3641 619 3225 264 
Q 2809 -91 2034 -91 
Q 1263 -91 845 264 
Q 428 619 428 1275 
Q 428 1772 725 2092 
Q 1022 2413 1556 2484 
Q 1084 2569 832 2842 
Q 581 3116 581 3541 
Q 581 4103 968 4426 
Q 1356 4750 2034 4750 
Q 2713 4750 3100 4426 
Q 3488 4103 3488 3541 
Q 3488 3116 3236 2842 
Q 2984 2569 2516 2484 
z
" transform="scale(0.015625)"/>
       </defs>
       <use xlink:href="#DejaVuSerif-30"/>
       <use xlink:href="#DejaVuSerif-2e" x="63.623047"/>
       <use xlink:href="#DejaVuSerif-39" x="95.410156"/>
       <use xlink:href="#DejaVuSerif-33" x="159.033203"/>
       <use xlink:href="#DejaVuSerif-38" x="222.65625"/>
      </g>
     </g>
    </g>
    <g id="xtick_2">
     <g id="line2d_2">
      <g>
       <use xlink:href="#m851b023985" x="94.909472" y="197.256" style="stroke: #000000; stroke-width: 0.8"/>
      </g>
     </g>
     <g id="text_2">
      <!-- 0.940 -->
      <g transform="translate(83.458222 210.33475) scale(0.08 -0.08)">
       <defs>
        <path id="DejaVuSerif-34" d="M 2234 1581 
L 2234 4063 
L 641 1581 
L 2234 1581 
z
M 3609 0 
L 1484 0 
L 1484 331 
L 2234 331 
L 2234 1247 
L 197 1247 
L 197 1588 
L 2241 4750 
L 2859 4750 
L 2859 1581 
L 3750 1581 
L 3750 1247 
L 2859 1247 
L 2859 331 
L 3609 331 
L 3609 0 
z
" transform="scale(0.015625)"/>
       </defs>
       <use xlink:href="#DejaVuSerif-30"/>
       <use xlink:href="#DejaVuSerif-2e" x="63.623047"/>
       <use xlink:href="#DejaVuSerif-39" x="95.410156"/>
       <use xlink:href="#DejaVuSerif-34" x="159.033203"/>
       <use xlink:href="#DejaVuSerif-30" x="222.65625"/>
      </g>
     </g>
    </g>
    <g id="xtick_3">
     <g id="line2d_3">
      <g>
       <use xlink:href="#m851b023985" x="127.186261" y="197.256" style="stroke: #000000; stroke-width: 0.8"/>
      </g>
     </g>
     <g id="text_3">
      <!-- 0.942 -->
      <g transform="translate(115.735011 210.33475) scale(0.08 -0.08)">
       <defs>
        <path id="DejaVuSerif-32" d="M 819 3553 
L 469 3553 
L 469 4384 
Q 803 4563 1142 4656 
Q 1481 4750 1806 4750 
Q 2534 4750 2956 4397 
Q 3378 4044 3378 3438 
Q 3378 2753 2422 1800 
Q 2347 1728 2309 1691 
L 1131 513 
L 3078 513 
L 3078 1088 
L 3444 1088 
L 3444 0 
L 434 0 
L 434 341 
L 1850 1753 
Q 2319 2222 2519 2614 
Q 2719 3006 2719 3438 
Q 2719 3909 2473 4175 
Q 2228 4441 1797 4441 
Q 1350 4441 1106 4219 
Q 863 3997 819 3553 
z
" transform="scale(0.015625)"/>
       </defs>
       <use xlink:href="#DejaVuSerif-30"/>
       <use xlink:href="#DejaVuSerif-2e" x="63.623047"/>
       <use xlink:href="#DejaVuSerif-39" x="95.410156"/>
       <use xlink:href="#DejaVuSerif-34" x="159.033203"/>
       <use xlink:href="#DejaVuSerif-32" x="222.65625"/>
      </g>
     </g>
    </g>
    <g id="xtick_4">
     <g id="line2d_4">
      <g>
       <use xlink:href="#m851b023985" x="159.46305" y="197.256" style="stroke: #000000; stroke-width: 0.8"/>
      </g>
     </g>
     <g id="text_4">
      <!-- 0.944 -->
      <g transform="translate(148.0118 210.33475) scale(0.08 -0.08)">
       <use xlink:href="#DejaVuSerif-30"/>
       <use xlink:href="#DejaVuSerif-2e" x="63.623047"/>
       <use xlink:href="#DejaVuSerif-39" x="95.410156"/>
       <use xlink:href="#DejaVuSerif-34" x="159.033203"/>
       <use xlink:href="#DejaVuSerif-34" x="222.65625"/>
      </g>
     </g>
    </g>
    <g id="xtick_5">
     <g id="line2d_5">
      <g>
       <use xlink:href="#m851b023985" x="191.73984" y="197.256" style="stroke: #000000; stroke-width: 0.8"/>
      </g>
     </g>
     <g id="text_5">
      <!-- 0.946 -->
      <g transform="translate(180.28859 210.33475) scale(0.08 -0.08)">
       <defs>
        <path id="DejaVuSerif-36" d="M 2094 219 
Q 2534 219 2771 542 
Q 3009 866 3009 1472 
Q 3009 2078 2771 2401 
Q 2534 2725 2094 2725 
Q 1647 2725 1412 2412 
Q 1178 2100 1178 1509 
Q 1178 888 1415 553 
Q 1653 219 2094 219 
z
M 1075 2569 
Q 1288 2803 1556 2918 
Q 1825 3034 2163 3034 
Q 2859 3034 3264 2615 
Q 3669 2197 3669 1472 
Q 3669 763 3233 336 
Q 2797 -91 2069 -91 
Q 1278 -91 853 498 
Q 428 1088 428 2181 
Q 428 3406 931 4078 
Q 1434 4750 2350 4750 
Q 2597 4750 2869 4703 
Q 3141 4656 3425 4563 
L 3425 3794 
L 3072 3794 
Q 3034 4109 2831 4275 
Q 2628 4441 2284 4441 
Q 1678 4441 1381 3981 
Q 1084 3522 1075 2569 
z
" transform="scale(0.015625)"/>
       </defs>
       <use xlink:href="#DejaVuSerif-30"/>
       <use xlink:href="#DejaVuSerif-2e" x="63.623047"/>
       <use xlink:href="#DejaVuSerif-39" x="95.410156"/>
       <use xlink:href="#DejaVuSerif-34" x="159.033203"/>
       <use xlink:href="#DejaVuSerif-36" x="222.65625"/>
      </g>
     </g>
    </g>
    <g id="xtick_6">
     <g id="line2d_6">
      <g>
       <use xlink:href="#m851b023985" x="224.016629" y="197.256" style="stroke: #000000; stroke-width: 0.8"/>
      </g>
     </g>
     <g id="text_6">
      <!-- 0.948 -->
      <g transform="translate(212.565379 210.33475) scale(0.08 -0.08)">
       <use xlink:href="#DejaVuSerif-30"/>
       <use xlink:href="#DejaVuSerif-2e" x="63.623047"/>
       <use xlink:href="#DejaVuSerif-39" x="95.410156"/>
       <use xlink:href="#DejaVuSerif-34" x="159.033203"/>
       <use xlink:href="#DejaVuSerif-38" x="222.65625"/>
      </g>
     </g>
    </g>
    <g id="xtick_7">
     <g id="line2d_7">
      <g>
       <use xlink:href="#m851b023985" x="256.293418" y="197.256" style="stroke: #000000; stroke-width: 0.8"/>
      </g>
     </g>
     <g id="text_7">
      <!-- 0.950 -->
      <g transform="translate(244.842168 210.33475) scale(0.08 -0.08)">
       <defs>
        <path id="DejaVuSerif-35" d="M 3219 4666 
L 3219 4153 
L 1081 4153 
L 1081 2816 
Q 1244 2928 1461 2984 
Q 1678 3041 1947 3041 
Q 2703 3041 3140 2622 
Q 3578 2203 3578 1478 
Q 3578 738 3136 323 
Q 2694 -91 1894 -91 
Q 1572 -91 1234 -12 
Q 897 66 544 225 
L 544 1131 
L 897 1131 
Q 925 688 1179 453 
Q 1434 219 1894 219 
Q 2388 219 2653 544 
Q 2919 869 2919 1478 
Q 2919 2084 2655 2407 
Q 2391 2731 1894 2731 
Q 1613 2731 1398 2631 
Q 1184 2531 1019 2322 
L 750 2322 
L 750 4666 
L 3219 4666 
z
" transform="scale(0.015625)"/>
       </defs>
       <use xlink:href="#DejaVuSerif-30"/>
       <use xlink:href="#DejaVuSerif-2e" x="63.623047"/>
       <use xlink:href="#DejaVuSerif-39" x="95.410156"/>
       <use xlink:href="#DejaVuSerif-35" x="159.033203"/>
       <use xlink:href="#DejaVuSerif-30" x="222.65625"/>
      </g>
     </g>
    </g>
    <g id="text_8">
     <!-- Mean bottleneck fidelity -->
     <g transform="translate(95.396325 222.837094) scale(0.09 -0.09)">
      <defs>
       <path id="DejaVuSerif-4d" d="M 353 0 
L 353 331 
L 947 331 
L 947 4331 
L 319 4331 
L 319 4666 
L 1678 4666 
L 3316 1344 
L 4953 4666 
L 6228 4666 
L 6228 4331 
L 5606 4331 
L 5606 331 
L 6203 331 
L 6203 0 
L 4378 0 
L 4378 331 
L 4972 331 
L 4972 3938 
L 3372 684 
L 2931 684 
L 1331 3938 
L 1331 331 
L 1925 331 
L 1925 0 
L 353 0 
z
" transform="scale(0.015625)"/>
       <path id="DejaVuSerif-65" d="M 3469 1600 
L 991 1600 
L 991 1575 
Q 991 903 1244 561 
Q 1497 219 1991 219 
Q 2369 219 2611 417 
Q 2853 616 2950 1006 
L 3413 1006 
Q 3275 459 2904 184 
Q 2534 -91 1931 -91 
Q 1203 -91 761 389 
Q 319 869 319 1663 
Q 319 2450 753 2931 
Q 1188 3413 1894 3413 
Q 2647 3413 3050 2948 
Q 3453 2484 3469 1600 
z
M 2791 1931 
Q 2772 2513 2545 2808 
Q 2319 3103 1894 3103 
Q 1497 3103 1269 2806 
Q 1041 2509 991 1931 
L 2791 1931 
z
" transform="scale(0.015625)"/>
       <path id="DejaVuSerif-61" d="M 2547 1044 
L 2547 1747 
L 1806 1747 
Q 1378 1747 1168 1562 
Q 959 1378 959 997 
Q 959 650 1171 447 
Q 1384 244 1747 244 
Q 2106 244 2326 466 
Q 2547 688 2547 1044 
z
M 3122 2075 
L 3122 331 
L 3634 331 
L 3634 0 
L 2547 0 
L 2547 359 
Q 2356 128 2106 18 
Q 1856 -91 1522 -91 
Q 969 -91 644 203 
Q 319 497 319 997 
Q 319 1513 691 1797 
Q 1063 2081 1741 2081 
L 2547 2081 
L 2547 2309 
Q 2547 2688 2317 2895 
Q 2088 3103 1672 3103 
Q 1328 3103 1125 2947 
Q 922 2791 872 2484 
L 575 2484 
L 575 3156 
Q 875 3284 1158 3348 
Q 1441 3413 1709 3413 
Q 2400 3413 2761 3070 
Q 3122 2728 3122 2075 
z
" transform="scale(0.015625)"/>
       <path id="DejaVuSerif-6e" d="M 263 0 
L 263 331 
L 781 331 
L 781 2988 
L 231 2988 
L 231 3322 
L 1356 3322 
L 1356 2731 
Q 1516 3069 1770 3241 
Q 2025 3413 2363 3413 
Q 2913 3413 3172 3097 
Q 3431 2781 3431 2113 
L 3431 331 
L 3944 331 
L 3944 0 
L 2356 0 
L 2356 331 
L 2853 331 
L 2853 1931 
Q 2853 2541 2703 2767 
Q 2553 2994 2175 2994 
Q 1775 2994 1565 2701 
Q 1356 2409 1356 1850 
L 1356 331 
L 1856 331 
L 1856 0 
L 263 0 
z
" transform="scale(0.015625)"/>
       <path id="DejaVuSerif-20" transform="scale(0.015625)"/>
       <path id="DejaVuSerif-62" d="M 738 331 
L 738 4531 
L 184 4531 
L 184 4863 
L 1313 4863 
L 1313 2803 
Q 1481 3116 1742 3264 
Q 2003 3413 2388 3413 
Q 3000 3413 3387 2928 
Q 3775 2444 3775 1663 
Q 3775 881 3387 395 
Q 3000 -91 2388 -91 
Q 2003 -91 1742 57 
Q 1481 206 1313 519 
L 1313 0 
L 184 0 
L 184 331 
L 738 331 
z
M 1313 1497 
Q 1313 897 1542 583 
Q 1772 269 2209 269 
Q 2650 269 2876 622 
Q 3103 975 3103 1663 
Q 3103 2353 2876 2703 
Q 2650 3053 2209 3053 
Q 1772 3053 1542 2737 
Q 1313 2422 1313 1825 
L 1313 1497 
z
" transform="scale(0.015625)"/>
       <path id="DejaVuSerif-6f" d="M 1925 219 
Q 2388 219 2623 584 
Q 2859 950 2859 1663 
Q 2859 2375 2623 2739 
Q 2388 3103 1925 3103 
Q 1463 3103 1227 2739 
Q 991 2375 991 1663 
Q 991 950 1228 584 
Q 1466 219 1925 219 
z
M 1925 -91 
Q 1200 -91 759 389 
Q 319 869 319 1663 
Q 319 2456 758 2934 
Q 1197 3413 1925 3413 
Q 2653 3413 3092 2934 
Q 3531 2456 3531 1663 
Q 3531 869 3092 389 
Q 2653 -91 1925 -91 
z
" transform="scale(0.015625)"/>
       <path id="DejaVuSerif-74" d="M 691 2988 
L 184 2988 
L 184 3322 
L 691 3322 
L 691 4353 
L 1269 4353 
L 1269 3322 
L 2350 3322 
L 2350 2988 
L 1269 2988 
L 1269 878 
Q 1269 456 1350 337 
Q 1431 219 1650 219 
Q 1875 219 1978 351 
Q 2081 484 2088 781 
L 2522 781 
Q 2497 328 2275 118 
Q 2053 -91 1600 -91 
Q 1103 -91 897 129 
Q 691 350 691 878 
L 691 2988 
z
" transform="scale(0.015625)"/>
       <path id="DejaVuSerif-6c" d="M 1313 331 
L 1856 331 
L 1856 0 
L 184 0 
L 184 331 
L 738 331 
L 738 4531 
L 184 4531 
L 184 4863 
L 1313 4863 
L 1313 331 
z
" transform="scale(0.015625)"/>
       <path id="DejaVuSerif-63" d="M 3291 997 
Q 3169 466 2822 187 
Q 2475 -91 1925 -91 
Q 1200 -91 759 389 
Q 319 869 319 1663 
Q 319 2459 759 2936 
Q 1200 3413 1925 3413 
Q 2241 3413 2553 3339 
Q 2866 3266 3181 3116 
L 3181 2266 
L 2847 2266 
Q 2781 2703 2561 2903 
Q 2341 3103 1931 3103 
Q 1466 3103 1228 2742 
Q 991 2381 991 1663 
Q 991 944 1227 581 
Q 1463 219 1931 219 
Q 2303 219 2525 412 
Q 2747 606 2828 997 
L 3291 997 
z
" transform="scale(0.015625)"/>
       <path id="DejaVuSerif-6b" d="M 1831 0 
L 219 0 
L 219 331 
L 738 331 
L 738 4531 
L 184 4531 
L 184 4863 
L 1313 4863 
L 1313 1697 
L 2713 2988 
L 2234 2988 
L 2234 3322 
L 3738 3322 
L 3738 2988 
L 3169 2988 
L 2181 2075 
L 3444 331 
L 3922 331 
L 3922 0 
L 2284 0 
L 2284 331 
L 2759 331 
L 1766 1697 
L 1313 1275 
L 1313 331 
L 1831 331 
L 1831 0 
z
" transform="scale(0.015625)"/>
       <path id="DejaVuSerif-66" d="M 2753 4078 
L 2450 4078 
Q 2447 4313 2317 4434 
Q 2188 4556 1941 4556 
Q 1619 4556 1487 4379 
Q 1356 4203 1356 3750 
L 1356 3322 
L 2284 3322 
L 2284 2988 
L 1356 2988 
L 1356 331 
L 2094 331 
L 2094 0 
L 231 0 
L 231 331 
L 781 331 
L 781 2988 
L 231 2988 
L 231 3322 
L 781 3322 
L 781 3738 
Q 781 4294 1070 4578 
Q 1359 4863 1919 4863 
Q 2128 4863 2337 4825 
Q 2547 4788 2753 4709 
L 2753 4078 
z
" transform="scale(0.015625)"/>
       <path id="DejaVuSerif-69" d="M 622 4353 
Q 622 4497 726 4603 
Q 831 4709 978 4709 
Q 1122 4709 1226 4603 
Q 1331 4497 1331 4353 
Q 1331 4206 1228 4103 
Q 1125 4000 978 4000 
Q 831 4000 726 4103 
Q 622 4206 622 4353 
z
M 1356 331 
L 1900 331 
L 1900 0 
L 231 0 
L 231 331 
L 781 331 
L 781 2988 
L 231 2988 
L 231 3322 
L 1356 3322 
L 1356 331 
z
" transform="scale(0.015625)"/>
       <path id="DejaVuSerif-64" d="M 3359 331 
L 3909 331 
L 3909 0 
L 2784 0 
L 2784 519 
Q 2616 206 2355 57 
Q 2094 -91 1709 -91 
Q 1097 -91 708 395 
Q 319 881 319 1663 
Q 319 2444 706 2928 
Q 1094 3413 1709 3413 
Q 2094 3413 2355 3264 
Q 2616 3116 2784 2803 
L 2784 4531 
L 2241 4531 
L 2241 4863 
L 3359 4863 
L 3359 331 
z
M 2784 1497 
L 2784 1825 
Q 2784 2422 2554 2737 
Q 2325 3053 1888 3053 
Q 1444 3053 1217 2703 
Q 991 2353 991 1663 
Q 991 975 1217 622 
Q 1444 269 1888 269 
Q 2325 269 2554 583 
Q 2784 897 2784 1497 
z
" transform="scale(0.015625)"/>
       <path id="DejaVuSerif-79" d="M 1381 -609 
L 1600 -56 
L 359 2988 
L -19 2988 
L -19 3322 
L 1509 3322 
L 1509 2988 
L 978 2988 
L 1913 703 
L 2847 2988 
L 2350 2988 
L 2350 3322 
L 3597 3322 
L 3597 2988 
L 3225 2988 
L 1703 -750 
Q 1547 -1138 1356 -1280 
Q 1166 -1422 819 -1422 
Q 672 -1422 517 -1397 
Q 363 -1372 206 -1325 
L 206 -691 
L 500 -691 
Q 519 -903 608 -995 
Q 697 -1088 884 -1088 
Q 1056 -1088 1161 -992 
Q 1266 -897 1381 -609 
z
" transform="scale(0.015625)"/>
      </defs>
      <use xlink:href="#DejaVuSerif-4d"/>
      <use xlink:href="#DejaVuSerif-65" x="102.392578"/>
      <use xlink:href="#DejaVuSerif-61" x="161.572266"/>
      <use xlink:href="#DejaVuSerif-6e" x="221.191406"/>
      <use xlink:href="#DejaVuSerif-20" x="285.595703"/>
      <use xlink:href="#DejaVuSerif-62" x="317.382812"/>
      <use xlink:href="#DejaVuSerif-6f" x="381.396484"/>
      <use xlink:href="#DejaVuSerif-74" x="441.601562"/>
      <use xlink:href="#DejaVuSerif-74" x="481.787109"/>
      <use xlink:href="#DejaVuSerif-6c" x="521.972656"/>
      <use xlink:href="#DejaVuSerif-65" x="553.955078"/>
      <use xlink:href="#DejaVuSerif-6e" x="613.134766"/>
      <use xlink:href="#DejaVuSerif-65" x="677.539062"/>
      <use xlink:href="#DejaVuSerif-63" x="736.71875"/>
      <use xlink:href="#DejaVuSerif-6b" x="792.724609"/>
      <use xlink:href="#DejaVuSerif-20" x="853.320312"/>
      <use xlink:href="#DejaVuSerif-66" x="885.107422"/>
      <use xlink:href="#DejaVuSerif-69" x="922.119141"/>
      <use xlink:href="#DejaVuSerif-64" x="954.101562"/>
      <use xlink:href="#DejaVuSerif-65" x="1018.115234"/>
      <use xlink:href="#DejaVuSerif-6c" x="1077.294922"/>
      <use xlink:href="#DejaVuSerif-69" x="1109.277344"/>
      <use xlink:href="#DejaVuSerif-74" x="1141.259766"/>
      <use xlink:href="#DejaVuSerif-79" x="1181.445312"/>
     </g>
    </g>
   </g>
   <g id="matplotlib.axis_2">
    <g id="ytick_1">
     <g id="line2d_8">
      <path d="M 39.632812 195.250044 
L 262.57843 195.250044 
" clip-path="url(#p25797b1a51)" style="fill: none; stroke: #b0b0b0; stroke-opacity: 0.25; stroke-width: 0.8; stroke-linecap: square"/>
     </g>
     <g id="line2d_9">
      <defs>
       <path id="m30dd7e7a09" d="M 0 0 
L -3.5 0 
" style="stroke: #000000; stroke-width: 0.8"/>
      </defs>
      <g>
       <use xlink:href="#m30dd7e7a09" x="39.632812" y="195.250044" style="stroke: #000000; stroke-width: 0.8"/>
      </g>
     </g>
     <g id="text_9">
      <!-- 0.0 -->
      <g transform="translate(19.910312 198.289419) scale(0.08 -0.08)">
       <use xlink:href="#DejaVuSerif-30"/>
       <use xlink:href="#DejaVuSerif-2e" x="63.623047"/>
       <use xlink:href="#DejaVuSerif-30" x="95.410156"/>
      </g>
     </g>
    </g>
    <g id="ytick_2">
     <g id="line2d_10">
      <path d="M 39.632812 168.503962 
L 262.57843 168.503962 
" clip-path="url(#p25797b1a51)" style="fill: none; stroke: #b0b0b0; stroke-opacity: 0.25; stroke-width: 0.8; stroke-linecap: square"/>
     </g>
     <g id="line2d_11">
      <g>
       <use xlink:href="#m30dd7e7a09" x="39.632812" y="168.503962" style="stroke: #000000; stroke-width: 0.8"/>
      </g>
     </g>
     <g id="text_10">
      <!-- 0.2 -->
      <g transform="translate(19.910312 171.543337) scale(0.08 -0.08)">
       <use xlink:href="#DejaVuSerif-30"/>
       <use xlink:href="#DejaVuSerif-2e" x="63.623047"/>
       <use xlink:href="#DejaVuSerif-32" x="95.410156"/>
      </g>
     </g>
    </g>
    <g id="ytick_3">
     <g id="line2d_12">
      <path d="M 39.632812 141.757881 
L 262.57843 141.757881 
" clip-path="url(#p25797b1a51)" style="fill: none; stroke: #b0b0b0; stroke-opacity: 0.25; stroke-width: 0.8; stroke-linecap: square"/>
     </g>
     <g id="line2d_13">
      <g>
       <use xlink:href="#m30dd7e7a09" x="39.632812" y="141.757881" style="stroke: #000000; stroke-width: 0.8"/>
      </g>
     </g>
     <g id="text_11">
      <!-- 0.4 -->
      <g transform="translate(19.910312 144.797256) scale(0.08 -0.08)">
       <use xlink:href="#DejaVuSerif-30"/>
       <use xlink:href="#DejaVuSerif-2e" x="63.623047"/>
       <use xlink:href="#DejaVuSerif-34" x="95.410156"/>
      </g>
     </g>
    </g>
    <g id="ytick_4">
     <g id="line2d_14">
      <path d="M 39.632812 115.011799 
L 262.57843 115.011799 
" clip-path="url(#p25797b1a51)" style="fill: none; stroke: #b0b0b0; stroke-opacity: 0.25; stroke-width: 0.8; stroke-linecap: square"/>
     </g>
     <g id="line2d_15">
      <g>
       <use xlink:href="#m30dd7e7a09" x="39.632812" y="115.011799" style="stroke: #000000; stroke-width: 0.8"/>
      </g>
     </g>
     <g id="text_12">
      <!-- 0.6 -->
      <g transform="translate(19.910312 118.051174) scale(0.08 -0.08)">
       <use xlink:href="#DejaVuSerif-30"/>
       <use xlink:href="#DejaVuSerif-2e" x="63.623047"/>
       <use xlink:href="#DejaVuSerif-36" x="95.410156"/>
      </g>
     </g>
    </g>
    <g id="ytick_5">
     <g id="line2d_16">
      <path d="M 39.632812 88.265718 
L 262.57843 88.265718 
" clip-path="url(#p25797b1a51)" style="fill: none; stroke: #b0b0b0; stroke-opacity: 0.25; stroke-width: 0.8; stroke-linecap: square"/>
     </g>
     <g id="line2d_17">
      <g>
       <use xlink:href="#m30dd7e7a09" x="39.632812" y="88.265718" style="stroke: #000000; stroke-width: 0.8"/>
      </g>
     </g>
     <g id="text_13">
      <!-- 0.8 -->
      <g transform="translate(19.910312 91.305093) scale(0.08 -0.08)">
       <use xlink:href="#DejaVuSerif-30"/>
       <use xlink:href="#DejaVuSerif-2e" x="63.623047"/>
       <use xlink:href="#DejaVuSerif-38" x="95.410156"/>
      </g>
     </g>
    </g>
    <g id="ytick_6">
     <g id="line2d_18">
      <path d="M 39.632812 61.519636 
L 262.57843 61.519636 
" clip-path="url(#p25797b1a51)" style="fill: none; stroke: #b0b0b0; stroke-opacity: 0.25; stroke-width: 0.8; stroke-linecap: square"/>
     </g>
     <g id="line2d_19">
      <g>
       <use xlink:href="#m30dd7e7a09" x="39.632812" y="61.519636" style="stroke: #000000; stroke-width: 0.8"/>
      </g>
     </g>
     <g id="text_14">
      <!-- 1.0 -->
      <g transform="translate(19.910312 64.559011) scale(0.08 -0.08)">
       <defs>
        <path id="DejaVuSerif-31" d="M 909 0 
L 909 331 
L 1722 331 
L 1722 4213 
L 781 3603 
L 781 4013 
L 1919 4750 
L 2350 4750 
L 2350 331 
L 3163 331 
L 3163 0 
L 909 0 
z
" transform="scale(0.015625)"/>
       </defs>
       <use xlink:href="#DejaVuSerif-31"/>
       <use xlink:href="#DejaVuSerif-2e" x="63.623047"/>
       <use xlink:href="#DejaVuSerif-30" x="95.410156"/>
      </g>
     </g>
    </g>
    <g id="text_15">
     <!-- ECDF across seeds -->
     <g transform="translate(14.038594 169.981781) rotate(-90) scale(0.09 -0.09)">
      <defs>
       <path id="DejaVuSerif-45" d="M 353 0 
L 353 331 
L 947 331 
L 947 4331 
L 353 4331 
L 353 4666 
L 4109 4666 
L 4109 3628 
L 3725 3628 
L 3725 4281 
L 1581 4281 
L 1581 2719 
L 3109 2719 
L 3109 3303 
L 3494 3303 
L 3494 1753 
L 3109 1753 
L 3109 2338 
L 1581 2338 
L 1581 384 
L 3775 384 
L 3775 1038 
L 4159 1038 
L 4159 0 
L 353 0 
z
" transform="scale(0.015625)"/>
       <path id="DejaVuSerif-43" d="M 4513 1234 
Q 4306 581 3820 245 
Q 3334 -91 2591 -91 
Q 2134 -91 1743 65 
Q 1353 222 1050 525 
Q 700 875 529 1320 
Q 359 1766 359 2328 
Q 359 3416 987 4083 
Q 1616 4750 2644 4750 
Q 3025 4750 3456 4650 
Q 3888 4550 4384 4347 
L 4384 3272 
L 4031 3272 
Q 3916 3859 3567 4137 
Q 3219 4416 2591 4416 
Q 1844 4416 1459 3886 
Q 1075 3356 1075 2328 
Q 1075 1303 1459 773 
Q 1844 244 2591 244 
Q 3113 244 3450 492 
Q 3788 741 3938 1234 
L 4513 1234 
z
" transform="scale(0.015625)"/>
       <path id="DejaVuSerif-44" d="M 1581 331 
L 2163 331 
Q 3072 331 3558 850 
Q 4044 1369 4044 2338 
Q 4044 3306 3559 3818 
Q 3075 4331 2163 4331 
L 1581 4331 
L 1581 331 
z
M 353 0 
L 353 331 
L 947 331 
L 947 4331 
L 353 4331 
L 353 4666 
L 2209 4666 
Q 3416 4666 4089 4050 
Q 4763 3434 4763 2338 
Q 4763 1238 4088 619 
Q 3413 0 2209 0 
L 353 0 
z
" transform="scale(0.015625)"/>
       <path id="DejaVuSerif-46" d="M 353 0 
L 353 331 
L 947 331 
L 947 4331 
L 353 4331 
L 353 4666 
L 4172 4666 
L 4172 3628 
L 3788 3628 
L 3788 4281 
L 1581 4281 
L 1581 2719 
L 3175 2719 
L 3175 3303 
L 3559 3303 
L 3559 1753 
L 3175 1753 
L 3175 2338 
L 1581 2338 
L 1581 331 
L 2328 331 
L 2328 0 
L 353 0 
z
" transform="scale(0.015625)"/>
       <path id="DejaVuSerif-72" d="M 3059 3328 
L 3059 2497 
L 2728 2497 
Q 2713 2744 2591 2866 
Q 2469 2988 2234 2988 
Q 1809 2988 1582 2694 
Q 1356 2400 1356 1850 
L 1356 331 
L 2022 331 
L 2022 0 
L 263 0 
L 263 331 
L 781 331 
L 781 2994 
L 231 2994 
L 231 3322 
L 1356 3322 
L 1356 2731 
Q 1525 3078 1790 3245 
Q 2056 3413 2438 3413 
Q 2578 3413 2733 3391 
Q 2888 3369 3059 3328 
z
" transform="scale(0.015625)"/>
       <path id="DejaVuSerif-73" d="M 359 184 
L 359 959 
L 691 959 
Q 703 588 923 403 
Q 1144 219 1575 219 
Q 1963 219 2166 364 
Q 2369 509 2369 788 
Q 2369 1006 2220 1140 
Q 2072 1275 1594 1428 
L 1178 1569 
Q 750 1706 558 1912 
Q 366 2119 366 2438 
Q 366 2894 700 3153 
Q 1034 3413 1625 3413 
Q 1888 3413 2178 3344 
Q 2469 3275 2778 3144 
L 2778 2419 
L 2447 2419 
Q 2434 2741 2221 2922 
Q 2009 3103 1644 3103 
Q 1281 3103 1095 2975 
Q 909 2847 909 2591 
Q 909 2381 1050 2254 
Q 1191 2128 1613 1997 
L 2069 1856 
Q 2541 1709 2748 1489 
Q 2956 1269 2956 922 
Q 2956 450 2595 179 
Q 2234 -91 1600 -91 
Q 1278 -91 972 -22 
Q 666 47 359 184 
z
" transform="scale(0.015625)"/>
      </defs>
      <use xlink:href="#DejaVuSerif-45"/>
      <use xlink:href="#DejaVuSerif-43" x="72.998047"/>
      <use xlink:href="#DejaVuSerif-44" x="149.511719"/>
      <use xlink:href="#DejaVuSerif-46" x="229.6875"/>
      <use xlink:href="#DejaVuSerif-20" x="299.072266"/>
      <use xlink:href="#DejaVuSerif-61" x="330.859375"/>
      <use xlink:href="#DejaVuSerif-63" x="390.478516"/>
      <use xlink:href="#DejaVuSerif-72" x="446.484375"/>
      <use xlink:href="#DejaVuSerif-6f" x="494.287109"/>
      <use xlink:href="#DejaVuSerif-73" x="554.492188"/>
      <use xlink:href="#DejaVuSerif-73" x="605.810547"/>
      <use xlink:href="#DejaVuSerif-20" x="657.128906"/>
      <use xlink:href="#DejaVuSerif-73" x="688.916016"/>
      <use xlink:href="#DejaVuSerif-65" x="740.234375"/>
      <use xlink:href="#DejaVuSerif-65" x="799.414062"/>
      <use xlink:href="#DejaVuSerif-64" x="858.59375"/>
      <use xlink:href="#DejaVuSerif-73" x="922.607422"/>
     </g>
    </g>
   </g>
   <g id="line2d_20">
    <path d="M 131.444799 190.792364 
L 143.504912 190.792364 
L 143.504912 186.334683 
L 145.81916 186.334683 
L 145.81916 181.877003 
L 147.367909 181.877003 
L 147.367909 177.419323 
L 149.437288 177.419323 
L 149.437288 172.961643 
L 149.936883 172.961643 
L 149.936883 168.503962 
L 152.470932 168.503962 
L 152.470932 164.046282 
L 156.052609 164.046282 
L 156.052609 159.588602 
L 156.221621 159.588602 
L 156.221621 155.130922 
L 160.505654 155.130922 
L 160.505654 150.673241 
L 160.660039 150.673241 
L 160.660039 146.215561 
L 161.168208 146.215561 
L 161.168208 141.757881 
L 162.976539 141.757881 
L 162.976539 137.300201 
L 164.301547 137.300201 
L 164.301547 132.84252 
L 167.476192 132.84252 
L 167.476192 128.38484 
L 168.284545 128.38484 
L 168.284545 123.92716 
L 169.067772 123.92716 
L 169.067772 119.46948 
L 169.454421 119.46948 
L 169.454421 115.011799 
L 171.265256 115.011799 
L 171.265256 110.554119 
L 171.814974 110.554119 
L 171.814974 106.096439 
L 174.721216 106.096439 
L 174.721216 101.638759 
L 182.996999 101.638759 
L 182.996999 97.181078 
L 185.709826 97.181078 
L 185.709826 92.723398 
L 185.768388 92.723398 
L 185.768388 88.265718 
L 188.004391 88.265718 
L 188.004391 83.808038 
L 188.148058 83.808038 
L 188.148058 79.350357 
L 189.162914 79.350357 
L 189.162914 74.892677 
L 191.953555 74.892677 
L 191.953555 70.434997 
L 195.910883 70.434997 
L 195.910883 65.977317 
L 198.498652 65.977317 
L 198.498652 61.519636 
" clip-path="url(#p25797b1a51)" style="fill: none; stroke: #1f77b4; stroke-width: 1.8; stroke-linecap: square"/>
   </g>
   <g id="line2d_21">
    <path d="M 184.905989 190.792364 
L 195.163188 190.792364 
L 195.163188 186.334683 
L 198.061443 186.334683 
L 198.061443 181.877003 
L 200.744785 181.877003 
L 200.744785 177.419323 
L 201.536147 177.419323 
L 201.536147 172.961643 
L 202.553852 172.961643 
L 202.553852 168.503962 
L 204.500601 168.503962 
L 204.500601 164.046282 
L 204.644293 164.046282 
L 204.644293 159.588602 
L 204.692071 159.588602 
L 204.692071 155.130922 
L 205.635051 155.130922 
L 205.635051 150.673241 
L 208.355334 150.673241 
L 208.355334 146.215561 
L 212.325725 146.215561 
L 212.325725 141.757881 
L 213.256933 141.757881 
L 213.256933 137.300201 
L 218.917004 137.300201 
L 218.917004 132.84252 
L 219.911029 132.84252 
L 219.911029 128.38484 
L 221.17485 128.38484 
L 221.17485 123.92716 
L 224.59373 123.92716 
L 224.59373 119.46948 
L 227.063358 119.46948 
L 227.063358 115.011799 
L 227.13951 115.011799 
L 227.13951 110.554119 
L 227.262416 110.554119 
L 227.262416 106.096439 
L 228.036636 106.096439 
L 228.036636 101.638759 
L 230.46613 101.638759 
L 230.46613 97.181078 
L 232.577089 97.181078 
L 232.577089 92.723398 
L 233.549282 92.723398 
L 233.549282 88.265718 
L 235.785931 88.265718 
L 235.785931 83.808038 
L 239.041983 83.808038 
L 239.041983 79.350357 
L 240.372166 79.350357 
L 240.372166 74.892677 
L 242.327187 74.892677 
L 242.327187 70.434997 
L 246.972836 70.434997 
L 246.972836 65.977317 
L 252.312574 65.977317 
L 252.312574 61.519636 
" clip-path="url(#p25797b1a51)" style="fill: none; stroke: #ff7f0e; stroke-width: 1.8; stroke-linecap: square"/>
   </g>
   <g id="line2d_22">
    <path d="M 49.766704 190.792364 
L 50.476115 190.792364 
L 50.476115 186.334683 
L 60.407932 186.334683 
L 60.407932 181.877003 
L 61.516418 181.877003 
L 61.516418 177.419323 
L 61.817477 177.419323 
L 61.817477 172.961643 
L 68.974059 172.961643 
L 68.974059 168.503962 
L 69.734793 168.503962 
L 69.734793 164.046282 
L 73.646872 164.046282 
L 73.646872 159.588602 
L 76.849931 159.588602 
L 76.849931 155.130922 
L 78.446972 155.130922 
L 78.446972 150.673241 
L 79.277348 150.673241 
L 79.277348 146.215561 
L 80.779499 146.215561 
L 80.779499 141.757881 
L 82.351479 141.757881 
L 82.351479 137.300201 
L 83.905085 137.300201 
L 83.905085 132.84252 
L 84.684757 132.84252 
L 84.684757 128.38484 
L 85.786803 128.38484 
L 85.786803 123.92716 
L 86.152898 123.92716 
L 86.152898 119.46948 
L 86.537662 119.46948 
L 86.537662 115.011799 
L 87.352795 115.011799 
L 87.352795 110.554119 
L 87.885972 110.554119 
L 87.885972 106.096439 
L 88.984152 106.096439 
L 88.984152 101.638759 
L 90.560688 101.638759 
L 90.560688 97.181078 
L 92.241089 97.181078 
L 92.241089 92.723398 
L 94.658996 92.723398 
L 94.658996 88.265718 
L 95.489609 88.265718 
L 95.489609 83.808038 
L 95.497646 83.808038 
L 95.497646 79.350357 
L 97.347837 79.350357 
L 97.347837 74.892677 
L 98.004323 74.892677 
L 98.004323 70.434997 
L 98.713575 70.434997 
L 98.713575 65.977317 
L 102.4951 65.977317 
L 102.4951 61.519636 
" clip-path="url(#p25797b1a51)" style="fill: none; stroke: #2ca02c; stroke-width: 1.8; stroke-linecap: square"/>
   </g>
   <g id="line2d_23">
    <path d="M 184.541586 190.792364 
L 190.850127 190.792364 
L 190.850127 186.334683 
L 197.045795 186.334683 
L 197.045795 181.877003 
L 208.091351 181.877003 
L 208.091351 177.419323 
L 208.170694 177.419323 
L 208.170694 172.961643 
L 211.728204 172.961643 
L 211.728204 168.503962 
L 212.207209 168.503962 
L 212.207209 164.046282 
L 216.817674 164.046282 
L 216.817674 159.588602 
L 217.606342 159.588602 
L 217.606342 155.130922 
L 219.799492 155.130922 
L 219.799492 150.673241 
L 220.097919 150.673241 
L 220.097919 146.215561 
L 222.285334 146.215561 
L 222.285334 141.757881 
L 223.745306 141.757881 
L 223.745306 137.300201 
L 226.583862 137.300201 
L 226.583862 132.84252 
L 227.788905 132.84252 
L 227.788905 128.38484 
L 229.589973 128.38484 
L 229.589973 123.92716 
L 229.929458 123.92716 
L 229.929458 119.46948 
L 230.732264 119.46948 
L 230.732264 115.011799 
L 232.564647 115.011799 
L 232.564647 110.554119 
L 233.823818 110.554119 
L 233.823818 106.096439 
L 234.090149 106.096439 
L 234.090149 101.638759 
L 234.853719 101.638759 
L 234.853719 97.181078 
L 238.802109 97.181078 
L 238.802109 92.723398 
L 239.396611 92.723398 
L 239.396611 88.265718 
L 239.532033 88.265718 
L 239.532033 83.808038 
L 240.342023 83.808038 
L 240.342023 79.350357 
L 241.348094 79.350357 
L 241.348094 74.892677 
L 242.213078 74.892677 
L 242.213078 70.434997 
L 242.949966 70.434997 
L 242.949966 65.977317 
L 252.444539 65.977317 
L 252.444539 61.519636 
" clip-path="url(#p25797b1a51)" style="fill: none; stroke: #d62728; stroke-width: 1.8; stroke-linecap: square"/>
   </g>
   <g id="patch_3">
    <path d="M 39.632812 197.256 
L 39.632812 55.056 
" style="fill: none; stroke: #000000; stroke-width: 0.8; stroke-linejoin: miter; stroke-linecap: square"/>
   </g>
   <g id="patch_4">
    <path d="M 39.632812 197.256 
L 262.57843 197.256 
" style="fill: none; stroke: #000000; stroke-width: 0.8; stroke-linejoin: miter; stroke-linecap: square"/>
   </g>
   <g id="text_16">
    <!-- Mesh-16 -->
    <g transform="translate(127.435059 48.056) scale(0.108 -0.108)">
     <defs>
      <path id="DejaVuSerif-68" d="M 263 0 
L 263 331 
L 781 331 
L 781 4531 
L 231 4531 
L 231 4863 
L 1356 4863 
L 1356 2731 
Q 1516 3069 1770 3241 
Q 2025 3413 2363 3413 
Q 2913 3413 3172 3097 
Q 3431 2781 3431 2113 
L 3431 331 
L 3944 331 
L 3944 0 
L 2356 0 
L 2356 331 
L 2853 331 
L 2853 1931 
Q 2853 2541 2704 2764 
Q 2556 2988 2175 2988 
Q 1775 2988 1565 2697 
Q 1356 2406 1356 1850 
L 1356 331 
L 1856 331 
L 1856 0 
L 263 0 
z
" transform="scale(0.015625)"/>
      <path id="DejaVuSerif-2d" d="M 281 1959 
L 1881 1959 
L 1881 1472 
L 281 1472 
L 281 1959 
z
" transform="scale(0.015625)"/>
     </defs>
     <use xlink:href="#DejaVuSerif-4d"/>
     <use xlink:href="#DejaVuSerif-65" x="102.392578"/>
     <use xlink:href="#DejaVuSerif-73" x="161.572266"/>
     <use xlink:href="#DejaVuSerif-68" x="212.890625"/>
     <use xlink:href="#DejaVuSerif-2d" x="277.294922"/>
     <use xlink:href="#DejaVuSerif-31" x="311.083984"/>
     <use xlink:href="#DejaVuSerif-36" x="374.707031"/>
    </g>
   </g>
  </g>
  <g id="axes_2">
   <g id="patch_5">
    <path d="M 282.507195 197.256 
L 505.452812 197.256 
L 505.452812 55.056 
L 282.507195 55.056 
z
" style="fill: #ffffff"/>
   </g>
   <g id="matplotlib.axis_3">
    <g id="xtick_8">
     <g id="line2d_24">
      <g>
       <use xlink:href="#m851b023985" x="295.018357" y="197.256" style="stroke: #000000; stroke-width: 0.8"/>
      </g>
     </g>
     <g id="text_17">
      <!-- 0.930 -->
      <g transform="translate(283.567107 210.33475) scale(0.08 -0.08)">
       <use xlink:href="#DejaVuSerif-30"/>
       <use xlink:href="#DejaVuSerif-2e" x="63.623047"/>
       <use xlink:href="#DejaVuSerif-39" x="95.410156"/>
       <use xlink:href="#DejaVuSerif-33" x="159.033203"/>
       <use xlink:href="#DejaVuSerif-30" x="222.65625"/>
      </g>
     </g>
    </g>
    <g id="xtick_9">
     <g id="line2d_25">
      <g>
       <use xlink:href="#m851b023985" x="324.391373" y="197.256" style="stroke: #000000; stroke-width: 0.8"/>
      </g>
     </g>
     <g id="text_18">
      <!-- 0.932 -->
      <g transform="translate(312.940123 210.33475) scale(0.08 -0.08)">
       <use xlink:href="#DejaVuSerif-30"/>
       <use xlink:href="#DejaVuSerif-2e" x="63.623047"/>
       <use xlink:href="#DejaVuSerif-39" x="95.410156"/>
       <use xlink:href="#DejaVuSerif-33" x="159.033203"/>
       <use xlink:href="#DejaVuSerif-32" x="222.65625"/>
      </g>
     </g>
    </g>
    <g id="xtick_10">
     <g id="line2d_26">
      <g>
       <use xlink:href="#m851b023985" x="353.76439" y="197.256" style="stroke: #000000; stroke-width: 0.8"/>
      </g>
     </g>
     <g id="text_19">
      <!-- 0.934 -->
      <g transform="translate(342.31314 210.33475) scale(0.08 -0.08)">
       <use xlink:href="#DejaVuSerif-30"/>
       <use xlink:href="#DejaVuSerif-2e" x="63.623047"/>
       <use xlink:href="#DejaVuSerif-39" x="95.410156"/>
       <use xlink:href="#DejaVuSerif-33" x="159.033203"/>
       <use xlink:href="#DejaVuSerif-34" x="222.65625"/>
      </g>
     </g>
    </g>
    <g id="xtick_11">
     <g id="line2d_27">
      <g>
       <use xlink:href="#m851b023985" x="383.137406" y="197.256" style="stroke: #000000; stroke-width: 0.8"/>
      </g>
     </g>
     <g id="text_20">
      <!-- 0.936 -->
      <g transform="translate(371.686156 210.33475) scale(0.08 -0.08)">
       <use xlink:href="#DejaVuSerif-30"/>
       <use xlink:href="#DejaVuSerif-2e" x="63.623047"/>
       <use xlink:href="#DejaVuSerif-39" x="95.410156"/>
       <use xlink:href="#DejaVuSerif-33" x="159.033203"/>
       <use xlink:href="#DejaVuSerif-36" x="222.65625"/>
      </g>
     </g>
    </g>
    <g id="xtick_12">
     <g id="line2d_28">
      <g>
       <use xlink:href="#m851b023985" x="412.510422" y="197.256" style="stroke: #000000; stroke-width: 0.8"/>
      </g>
     </g>
     <g id="text_21">
      <!-- 0.938 -->
      <g transform="translate(401.059172 210.33475) scale(0.08 -0.08)">
       <use xlink:href="#DejaVuSerif-30"/>
       <use xlink:href="#DejaVuSerif-2e" x="63.623047"/>
       <use xlink:href="#DejaVuSerif-39" x="95.410156"/>
       <use xlink:href="#DejaVuSerif-33" x="159.033203"/>
       <use xlink:href="#DejaVuSerif-38" x="222.65625"/>
      </g>
     </g>
    </g>
    <g id="xtick_13">
     <g id="line2d_29">
      <g>
       <use xlink:href="#m851b023985" x="441.883438" y="197.256" style="stroke: #000000; stroke-width: 0.8"/>
      </g>
     </g>
     <g id="text_22">
      <!-- 0.940 -->
      <g transform="translate(430.432188 210.33475) scale(0.08 -0.08)">
       <use xlink:href="#DejaVuSerif-30"/>
       <use xlink:href="#DejaVuSerif-2e" x="63.623047"/>
       <use xlink:href="#DejaVuSerif-39" x="95.410156"/>
       <use xlink:href="#DejaVuSerif-34" x="159.033203"/>
       <use xlink:href="#DejaVuSerif-30" x="222.65625"/>
      </g>
     </g>
    </g>
    <g id="xtick_14">
     <g id="line2d_30">
      <g>
       <use xlink:href="#m851b023985" x="471.256454" y="197.256" style="stroke: #000000; stroke-width: 0.8"/>
      </g>
     </g>
     <g id="text_23">
      <!-- 0.942 -->
      <g transform="translate(459.805204 210.33475) scale(0.08 -0.08)">
       <use xlink:href="#DejaVuSerif-30"/>
       <use xlink:href="#DejaVuSerif-2e" x="63.623047"/>
       <use xlink:href="#DejaVuSerif-39" x="95.410156"/>
       <use xlink:href="#DejaVuSerif-34" x="159.033203"/>
       <use xlink:href="#DejaVuSerif-32" x="222.65625"/>
      </g>
     </g>
    </g>
    <g id="xtick_15">
     <g id="line2d_31">
      <g>
       <use xlink:href="#m851b023985" x="500.62947" y="197.256" style="stroke: #000000; stroke-width: 0.8"/>
      </g>
     </g>
     <g id="text_24">
      <!-- 0.944 -->
      <g transform="translate(489.17822 210.33475) scale(0.08 -0.08)">
       <use xlink:href="#DejaVuSerif-30"/>
       <use xlink:href="#DejaVuSerif-2e" x="63.623047"/>
       <use xlink:href="#DejaVuSerif-39" x="95.410156"/>
       <use xlink:href="#DejaVuSerif-34" x="159.033203"/>
       <use xlink:href="#DejaVuSerif-34" x="222.65625"/>
      </g>
     </g>
    </g>
    <g id="text_25">
     <!-- Mean bottleneck fidelity -->
     <g transform="translate(338.270707 222.837094) scale(0.09 -0.09)">
      <use xlink:href="#DejaVuSerif-4d"/>
      <use xlink:href="#DejaVuSerif-65" x="102.392578"/>
      <use xlink:href="#DejaVuSerif-61" x="161.572266"/>
      <use xlink:href="#DejaVuSerif-6e" x="221.191406"/>
      <use xlink:href="#DejaVuSerif-20" x="285.595703"/>
      <use xlink:href="#DejaVuSerif-62" x="317.382812"/>
      <use xlink:href="#DejaVuSerif-6f" x="381.396484"/>
      <use xlink:href="#DejaVuSerif-74" x="441.601562"/>
      <use xlink:href="#DejaVuSerif-74" x="481.787109"/>
      <use xlink:href="#DejaVuSerif-6c" x="521.972656"/>
      <use xlink:href="#DejaVuSerif-65" x="553.955078"/>
      <use xlink:href="#DejaVuSerif-6e" x="613.134766"/>
      <use xlink:href="#DejaVuSerif-65" x="677.539062"/>
      <use xlink:href="#DejaVuSerif-63" x="736.71875"/>
      <use xlink:href="#DejaVuSerif-6b" x="792.724609"/>
      <use xlink:href="#DejaVuSerif-20" x="853.320312"/>
      <use xlink:href="#DejaVuSerif-66" x="885.107422"/>
      <use xlink:href="#DejaVuSerif-69" x="922.119141"/>
      <use xlink:href="#DejaVuSerif-64" x="954.101562"/>
      <use xlink:href="#DejaVuSerif-65" x="1018.115234"/>
      <use xlink:href="#DejaVuSerif-6c" x="1077.294922"/>
      <use xlink:href="#DejaVuSerif-69" x="1109.277344"/>
      <use xlink:href="#DejaVuSerif-74" x="1141.259766"/>
      <use xlink:href="#DejaVuSerif-79" x="1181.445312"/>
     </g>
    </g>
   </g>
   <g id="matplotlib.axis_4">
    <g id="ytick_7">
     <g id="line2d_32">
      <path d="M 282.507195 195.250044 
L 505.452812 195.250044 
" clip-path="url(#pfb6154a3a5)" style="fill: none; stroke: #b0b0b0; stroke-opacity: 0.25; stroke-width: 0.8; stroke-linecap: square"/>
     </g>
     <g id="line2d_33">
      <g>
       <use xlink:href="#m30dd7e7a09" x="282.507195" y="195.250044" style="stroke: #000000; stroke-width: 0.8"/>
      </g>
     </g>
    </g>
    <g id="ytick_8">
     <g id="line2d_34">
      <path d="M 282.507195 168.503962 
L 505.452812 168.503962 
" clip-path="url(#pfb6154a3a5)" style="fill: none; stroke: #b0b0b0; stroke-opacity: 0.25; stroke-width: 0.8; stroke-linecap: square"/>
     </g>
     <g id="line2d_35">
      <g>
       <use xlink:href="#m30dd7e7a09" x="282.507195" y="168.503962" style="stroke: #000000; stroke-width: 0.8"/>
      </g>
     </g>
    </g>
    <g id="ytick_9">
     <g id="line2d_36">
      <path d="M 282.507195 141.757881 
L 505.452812 141.757881 
" clip-path="url(#pfb6154a3a5)" style="fill: none; stroke: #b0b0b0; stroke-opacity: 0.25; stroke-width: 0.8; stroke-linecap: square"/>
     </g>
     <g id="line2d_37">
      <g>
       <use xlink:href="#m30dd7e7a09" x="282.507195" y="141.757881" style="stroke: #000000; stroke-width: 0.8"/>
      </g>
     </g>
    </g>
    <g id="ytick_10">
     <g id="line2d_38">
      <path d="M 282.507195 115.011799 
L 505.452812 115.011799 
" clip-path="url(#pfb6154a3a5)" style="fill: none; stroke: #b0b0b0; stroke-opacity: 0.25; stroke-width: 0.8; stroke-linecap: square"/>
     </g>
     <g id="line2d_39">
      <g>
       <use xlink:href="#m30dd7e7a09" x="282.507195" y="115.011799" style="stroke: #000000; stroke-width: 0.8"/>
      </g>
     </g>
    </g>
    <g id="ytick_11">
     <g id="line2d_40">
      <path d="M 282.507195 88.265718 
L 505.452812 88.265718 
" clip-path="url(#pfb6154a3a5)" style="fill: none; stroke: #b0b0b0; stroke-opacity: 0.25; stroke-width: 0.8; stroke-linecap: square"/>
     </g>
     <g id="line2d_41">
      <g>
       <use xlink:href="#m30dd7e7a09" x="282.507195" y="88.265718" style="stroke: #000000; stroke-width: 0.8"/>
      </g>
     </g>
    </g>
    <g id="ytick_12">
     <g id="line2d_42">
      <path d="M 282.507195 61.519636 
L 505.452812 61.519636 
" clip-path="url(#pfb6154a3a5)" style="fill: none; stroke: #b0b0b0; stroke-opacity: 0.25; stroke-width: 0.8; stroke-linecap: square"/>
     </g>
     <g id="line2d_43">
      <g>
       <use xlink:href="#m30dd7e7a09" x="282.507195" y="61.519636" style="stroke: #000000; stroke-width: 0.8"/>
      </g>
     </g>
    </g>
   </g>
   <g id="line2d_44">
    <path d="M 402.738011 190.792364 
L 422.496957 190.792364 
L 422.496957 186.334683 
L 424.042443 186.334683 
L 424.042443 181.877003 
L 428.681976 181.877003 
L 428.681976 177.419323 
L 430.440863 177.419323 
L 430.440863 172.961643 
L 430.689654 172.961643 
L 430.689654 168.503962 
L 431.729633 168.503962 
L 431.729633 164.046282 
L 433.060585 164.046282 
L 433.060585 159.588602 
L 441.214115 159.588602 
L 441.214115 155.130922 
L 441.811228 155.130922 
L 441.811228 150.673241 
L 442.159505 150.673241 
L 442.159505 146.215561 
L 442.825011 146.215561 
L 442.825011 141.757881 
L 443.241692 141.757881 
L 443.241692 137.300201 
L 443.967469 137.300201 
L 443.967469 132.84252 
L 445.267357 132.84252 
L 445.267357 128.38484 
L 445.893873 128.38484 
L 445.893873 123.92716 
L 445.933257 123.92716 
L 445.933257 119.46948 
L 447.33566 119.46948 
L 447.33566 115.011799 
L 448.840716 115.011799 
L 448.840716 110.554119 
L 448.932618 110.554119 
L 448.932618 106.096439 
L 450.211352 106.096439 
L 450.211352 101.638759 
L 452.51001 101.638759 
L 452.51001 97.181078 
L 452.627606 97.181078 
L 452.627606 92.723398 
L 452.713807 92.723398 
L 452.713807 88.265718 
L 452.972982 88.265718 
L 452.972982 83.808038 
L 454.686327 83.808038 
L 454.686327 79.350357 
L 454.837815 79.350357 
L 454.837815 74.892677 
L 456.530849 74.892677 
L 456.530849 70.434997 
L 463.763517 70.434997 
L 463.763517 65.977317 
L 481.315393 65.977317 
L 481.315393 61.519636 
" clip-path="url(#pfb6154a3a5)" style="fill: none; stroke: #1f77b4; stroke-width: 1.8; stroke-linecap: square"/>
   </g>
   <g id="line2d_45">
    <path d="M 415.248671 190.792364 
L 433.480761 190.792364 
L 433.480761 186.334683 
L 433.62295 186.334683 
L 433.62295 181.877003 
L 439.009374 181.877003 
L 439.009374 177.419323 
L 439.537584 177.419323 
L 439.537584 172.961643 
L 440.937037 172.961643 
L 440.937037 168.503962 
L 440.984325 168.503962 
L 440.984325 164.046282 
L 445.28332 164.046282 
L 445.28332 159.588602 
L 450.211627 159.588602 
L 450.211627 155.130922 
L 452.466785 155.130922 
L 452.466785 150.673241 
L 452.979338 150.673241 
L 452.979338 146.215561 
L 453.810179 146.215561 
L 453.810179 141.757881 
L 454.358334 141.757881 
L 454.358334 137.300201 
L 454.776268 137.300201 
L 454.776268 132.84252 
L 455.282725 132.84252 
L 455.282725 128.38484 
L 455.383586 128.38484 
L 455.383586 123.92716 
L 456.081542 123.92716 
L 456.081542 119.46948 
L 456.573147 119.46948 
L 456.573147 115.011799 
L 457.726737 115.011799 
L 457.726737 110.554119 
L 458.657767 110.554119 
L 458.657767 106.096439 
L 461.739216 106.096439 
L 461.739216 101.638759 
L 462.266322 101.638759 
L 462.266322 97.181078 
L 462.916124 97.181078 
L 462.916124 92.723398 
L 463.3531 92.723398 
L 463.3531 88.265718 
L 463.81187 88.265718 
L 463.81187 83.808038 
L 464.078084 83.808038 
L 464.078084 79.350357 
L 464.72925 79.350357 
L 464.72925 74.892677 
L 469.060209 74.892677 
L 469.060209 70.434997 
L 472.203924 70.434997 
L 472.203924 65.977317 
L 495.318921 65.977317 
L 495.318921 61.519636 
" clip-path="url(#pfb6154a3a5)" style="fill: none; stroke: #ff7f0e; stroke-width: 1.8; stroke-linecap: square"/>
   </g>
   <g id="line2d_46">
    <path d="M 292.641086 190.792364 
L 297.756957 190.792364 
L 297.756957 186.334683 
L 297.925677 186.334683 
L 297.925677 181.877003 
L 300.756095 181.877003 
L 300.756095 177.419323 
L 302.96771 177.419323 
L 302.96771 172.961643 
L 303.479307 172.961643 
L 303.479307 168.503962 
L 303.593359 168.503962 
L 303.593359 164.046282 
L 305.897809 164.046282 
L 305.897809 159.588602 
L 306.395857 159.588602 
L 306.395857 155.130922 
L 309.452875 155.130922 
L 309.452875 150.673241 
L 309.558715 150.673241 
L 309.558715 146.215561 
L 312.944503 146.215561 
L 312.944503 141.757881 
L 313.994856 141.757881 
L 313.994856 137.300201 
L 315.129568 137.300201 
L 315.129568 132.84252 
L 315.577911 132.84252 
L 315.577911 128.38484 
L 317.410071 128.38484 
L 317.410071 123.92716 
L 317.8236 123.92716 
L 317.8236 119.46948 
L 319.767614 119.46948 
L 319.767614 115.011799 
L 320.034894 115.011799 
L 320.034894 110.554119 
L 320.231343 110.554119 
L 320.231343 106.096439 
L 322.501357 106.096439 
L 322.501357 101.638759 
L 322.78001 101.638759 
L 322.78001 97.181078 
L 323.448851 97.181078 
L 323.448851 92.723398 
L 323.922691 92.723398 
L 323.922691 88.265718 
L 325.873706 88.265718 
L 325.873706 83.808038 
L 326.730496 83.808038 
L 326.730496 79.350357 
L 329.592622 79.350357 
L 329.592622 74.892677 
L 331.956895 74.892677 
L 331.956895 70.434997 
L 334.215356 70.434997 
L 334.215356 65.977317 
L 346.499942 65.977317 
L 346.499942 61.519636 
" clip-path="url(#pfb6154a3a5)" style="fill: none; stroke: #2ca02c; stroke-width: 1.8; stroke-linecap: square"/>
   </g>
   <g id="line2d_47">
    <path d="M 427.138733 190.792364 
L 429.308997 190.792364 
L 429.308997 186.334683 
L 432.389043 186.334683 
L 432.389043 181.877003 
L 434.011885 181.877003 
L 434.011885 177.419323 
L 437.365979 177.419323 
L 437.365979 172.961643 
L 437.900636 172.961643 
L 437.900636 168.503962 
L 439.858709 168.503962 
L 439.858709 164.046282 
L 441.226501 164.046282 
L 441.226501 159.588602 
L 442.703755 159.588602 
L 442.703755 155.130922 
L 443.764501 155.130922 
L 443.764501 150.673241 
L 445.699121 150.673241 
L 445.699121 146.215561 
L 446.868655 146.215561 
L 446.868655 141.757881 
L 447.105759 141.757881 
L 447.105759 137.300201 
L 448.207361 137.300201 
L 448.207361 132.84252 
L 449.49503 132.84252 
L 449.49503 128.38484 
L 452.059578 128.38484 
L 452.059578 123.92716 
L 452.987111 123.92716 
L 452.987111 119.46948 
L 453.860357 119.46948 
L 453.860357 115.011799 
L 456.428185 115.011799 
L 456.428185 110.554119 
L 456.648339 110.554119 
L 456.648339 106.096439 
L 457.7118 106.096439 
L 457.7118 101.638759 
L 458.06669 101.638759 
L 458.06669 97.181078 
L 458.482997 97.181078 
L 458.482997 92.723398 
L 458.833059 92.723398 
L 458.833059 88.265718 
L 461.97338 88.265718 
L 461.97338 83.808038 
L 462.086816 83.808038 
L 462.086816 79.350357 
L 467.338401 79.350357 
L 467.338401 74.892677 
L 470.349192 74.892677 
L 470.349192 70.434997 
L 489.183913 70.434997 
L 489.183913 65.977317 
L 491.090495 65.977317 
L 491.090495 61.519636 
" clip-path="url(#pfb6154a3a5)" style="fill: none; stroke: #d62728; stroke-width: 1.8; stroke-linecap: square"/>
   </g>
   <g id="patch_6">
    <path d="M 282.507195 197.256 
L 282.507195 55.056 
" style="fill: none; stroke: #000000; stroke-width: 0.8; stroke-linejoin: miter; stroke-linecap: square"/>
   </g>
   <g id="patch_7">
    <path d="M 282.507195 197.256 
L 505.452812 197.256 
" style="fill: none; stroke: #000000; stroke-width: 0.8; stroke-linejoin: miter; stroke-linecap: square"/>
   </g>
   <g id="text_26">
    <!-- Irregular-12 -->
    <g transform="translate(360.329566 48.056) scale(0.108 -0.108)">
     <defs>
      <path id="DejaVuSerif-49" d="M 1581 331 
L 2175 331 
L 2175 0 
L 353 0 
L 353 331 
L 947 331 
L 947 4331 
L 353 4331 
L 353 4666 
L 2175 4666 
L 2175 4331 
L 1581 4331 
L 1581 331 
z
" transform="scale(0.015625)"/>
      <path id="DejaVuSerif-67" d="M 3359 2988 
L 3359 72 
Q 3359 -644 2965 -1033 
Q 2572 -1422 1844 -1422 
Q 1516 -1422 1216 -1362 
Q 916 -1303 641 -1184 
L 641 -488 
L 941 -488 
Q 997 -813 1206 -963 
Q 1416 -1113 1806 -1113 
Q 2313 -1113 2548 -827 
Q 2784 -541 2784 72 
L 2784 519 
Q 2616 206 2355 57 
Q 2094 -91 1709 -91 
Q 1097 -91 708 395 
Q 319 881 319 1663 
Q 319 2444 706 2928 
Q 1094 3413 1709 3413 
Q 2094 3413 2355 3264 
Q 2616 3116 2784 2803 
L 2784 3322 
L 3909 3322 
L 3909 2988 
L 3359 2988 
z
M 2784 1825 
Q 2784 2422 2554 2737 
Q 2325 3053 1888 3053 
Q 1444 3053 1217 2703 
Q 991 2353 991 1663 
Q 991 975 1217 622 
Q 1444 269 1888 269 
Q 2325 269 2554 583 
Q 2784 897 2784 1497 
L 2784 1825 
z
" transform="scale(0.015625)"/>
      <path id="DejaVuSerif-75" d="M 2266 3322 
L 3341 3322 
L 3341 331 
L 3884 331 
L 3884 0 
L 2766 0 
L 2766 588 
Q 2606 256 2353 82 
Q 2100 -91 1766 -91 
Q 1213 -91 952 223 
Q 691 538 691 1209 
L 691 2988 
L 172 2988 
L 172 3322 
L 1269 3322 
L 1269 1388 
Q 1269 781 1417 556 
Q 1566 331 1947 331 
Q 2347 331 2556 625 
Q 2766 919 2766 1478 
L 2766 2988 
L 2266 2988 
L 2266 3322 
z
" transform="scale(0.015625)"/>
     </defs>
     <use xlink:href="#DejaVuSerif-49"/>
     <use xlink:href="#DejaVuSerif-72" x="39.501953"/>
     <use xlink:href="#DejaVuSerif-72" x="87.304688"/>
     <use xlink:href="#DejaVuSerif-65" x="135.107422"/>
     <use xlink:href="#DejaVuSerif-67" x="194.287109"/>
     <use xlink:href="#DejaVuSerif-75" x="258.300781"/>
     <use xlink:href="#DejaVuSerif-6c" x="322.705078"/>
     <use xlink:href="#DejaVuSerif-61" x="354.6875"/>
     <use xlink:href="#DejaVuSerif-72" x="414.306641"/>
     <use xlink:href="#DejaVuSerif-2d" x="462.109375"/>
     <use xlink:href="#DejaVuSerif-31" x="495.898438"/>
     <use xlink:href="#DejaVuSerif-32" x="559.521484"/>
    </g>
   </g>
  </g>
  <g id="legend_1">
   <g id="line2d_48">
    <path d="M 112.545313 13.67875 
L 120.545313 13.67875 
L 120.545313 13.67875 
L 128.545313 13.67875 
L 128.545313 13.67875 
" style="fill: none; stroke: #1f77b4; stroke-width: 1.8; stroke-linecap: square"/>
   </g>
   <g id="text_27">
    <!-- Distance -->
    <g transform="translate(134.945312 16.47875) scale(0.08 -0.08)">
     <use xlink:href="#DejaVuSerif-44"/>
     <use xlink:href="#DejaVuSerif-69" x="80.175781"/>
     <use xlink:href="#DejaVuSerif-73" x="112.158203"/>
     <use xlink:href="#DejaVuSerif-74" x="163.476562"/>
     <use xlink:href="#DejaVuSerif-61" x="203.662109"/>
     <use xlink:href="#DejaVuSerif-6e" x="263.28125"/>
     <use xlink:href="#DejaVuSerif-63" x="327.685547"/>
     <use xlink:href="#DejaVuSerif-65" x="383.691406"/>
    </g>
   </g>
   <g id="line2d_49">
    <path d="M 186.375313 13.67875 
L 194.375313 13.67875 
L 194.375313 13.67875 
L 202.375313 13.67875 
L 202.375313 13.67875 
" style="fill: none; stroke: #ff7f0e; stroke-width: 1.8; stroke-linecap: square"/>
   </g>
   <g id="text_28">
    <!-- Key-aware -->
    <g transform="translate(208.775313 16.47875) scale(0.08 -0.08)">
     <defs>
      <path id="DejaVuSerif-4b" d="M 353 0 
L 353 331 
L 947 331 
L 947 4331 
L 353 4331 
L 353 4666 
L 2175 4666 
L 2175 4331 
L 1581 4331 
L 1581 2566 
L 3591 4331 
L 3084 4331 
L 3084 4666 
L 4634 4666 
L 4634 4331 
L 4109 4331 
L 2106 2572 
L 4347 331 
L 4878 331 
L 4878 0 
L 3794 0 
L 1581 2216 
L 1581 331 
L 2175 331 
L 2175 0 
L 353 0 
z
" transform="scale(0.015625)"/>
      <path id="DejaVuSerif-77" d="M 3072 3322 
L 3922 728 
L 4672 2988 
L 4191 2988 
L 4191 3322 
L 5394 3322 
L 5394 2988 
L 5025 2988 
L 4038 0 
L 3559 0 
L 2741 2484 
L 1919 0 
L 1459 0 
L 475 2988 
L 103 2988 
L 103 3322 
L 1606 3322 
L 1606 2988 
L 1069 2988 
L 1813 728 
L 2669 3322 
L 3072 3322 
z
" transform="scale(0.015625)"/>
     </defs>
     <use xlink:href="#DejaVuSerif-4b"/>
     <use xlink:href="#DejaVuSerif-65" x="72.082031"/>
     <use xlink:href="#DejaVuSerif-79" x="131.261719"/>
     <use xlink:href="#DejaVuSerif-2d" x="187.755859"/>
     <use xlink:href="#DejaVuSerif-61" x="221.544922"/>
     <use xlink:href="#DejaVuSerif-77" x="281.164062"/>
     <use xlink:href="#DejaVuSerif-61" x="366.759766"/>
     <use xlink:href="#DejaVuSerif-72" x="426.378906"/>
     <use xlink:href="#DejaVuSerif-65" x="474.181641"/>
    </g>
   </g>
   <g id="line2d_50">
    <path d="M 267.446562 13.67875 
L 275.446562 13.67875 
L 275.446562 13.67875 
L 283.446562 13.67875 
L 283.446562 13.67875 
" style="fill: none; stroke: #2ca02c; stroke-width: 1.8; stroke-linecap: square"/>
   </g>
   <g id="text_29">
    <!-- Random -->
    <g transform="translate(289.846562 16.47875) scale(0.08 -0.08)">
     <defs>
      <path id="DejaVuSerif-52" d="M 3066 2316 
Q 3284 2256 3442 2114 
Q 3600 1972 3725 1716 
L 4403 331 
L 4972 331 
L 4972 0 
L 3872 0 
L 3144 1484 
Q 2934 1916 2759 2042 
Q 2584 2169 2278 2169 
L 1581 2169 
L 1581 331 
L 2241 331 
L 2241 0 
L 353 0 
L 353 331 
L 947 331 
L 947 4331 
L 353 4331 
L 353 4666 
L 2719 4666 
Q 3400 4666 3770 4341 
Q 4141 4016 4141 3419 
Q 4141 2938 3870 2661 
Q 3600 2384 3066 2316 
z
M 1581 2503 
L 2503 2503 
Q 2975 2503 3200 2726 
Q 3425 2950 3425 3419 
Q 3425 3888 3200 4109 
Q 2975 4331 2503 4331 
L 1581 4331 
L 1581 2503 
z
" transform="scale(0.015625)"/>
      <path id="DejaVuSerif-6d" d="M 3316 2675 
Q 3481 3041 3739 3227 
Q 3997 3413 4341 3413 
Q 4863 3413 5119 3089 
Q 5375 2766 5375 2113 
L 5375 331 
L 5894 331 
L 5894 0 
L 4300 0 
L 4300 331 
L 4800 331 
L 4800 2047 
Q 4800 2556 4650 2772 
Q 4500 2988 4153 2988 
Q 3769 2988 3567 2697 
Q 3366 2406 3366 1850 
L 3366 331 
L 3866 331 
L 3866 0 
L 2291 0 
L 2291 331 
L 2791 331 
L 2791 2069 
Q 2791 2566 2641 2777 
Q 2491 2988 2144 2988 
Q 1759 2988 1557 2697 
Q 1356 2406 1356 1850 
L 1356 331 
L 1856 331 
L 1856 0 
L 263 0 
L 263 331 
L 781 331 
L 781 2994 
L 231 2994 
L 231 3322 
L 1356 3322 
L 1356 2731 
Q 1516 3063 1762 3238 
Q 2009 3413 2322 3413 
Q 2709 3413 2968 3220 
Q 3228 3028 3316 2675 
z
" transform="scale(0.015625)"/>
     </defs>
     <use xlink:href="#DejaVuSerif-52"/>
     <use xlink:href="#DejaVuSerif-61" x="77.542969"/>
     <use xlink:href="#DejaVuSerif-6e" x="137.162109"/>
     <use xlink:href="#DejaVuSerif-64" x="201.566406"/>
     <use xlink:href="#DejaVuSerif-6f" x="265.580078"/>
     <use xlink:href="#DejaVuSerif-6d" x="325.785156"/>
    </g>
   </g>
   <g id="line2d_51">
    <path d="M 339.496562 13.67875 
L 347.496562 13.67875 
L 347.496562 13.67875 
L 355.496562 13.67875 
L 355.496562 13.67875 
" style="fill: none; stroke: #d62728; stroke-width: 1.8; stroke-linecap: square"/>
   </g>
   <g id="text_30">
    <!-- GA proxy -->
    <g transform="translate(361.896562 16.47875) scale(0.08 -0.08)">
     <defs>
      <path id="DejaVuSerif-47" d="M 4097 3272 
Q 3988 3856 3641 4136 
Q 3294 4416 2675 4416 
Q 1869 4416 1472 3897 
Q 1075 3378 1075 2328 
Q 1075 1300 1484 772 
Q 1894 244 2688 244 
Q 3041 244 3362 331 
Q 3684 419 3975 594 
L 3975 1797 
L 3097 1797 
L 3097 2131 
L 4609 2131 
L 4609 391 
Q 4194 150 3714 29 
Q 3234 -91 2688 -91 
Q 1631 -91 995 570 
Q 359 1231 359 2328 
Q 359 3434 996 4092 
Q 1634 4750 2713 4750 
Q 3113 4750 3539 4658 
Q 3966 4566 4447 4378 
L 4447 3272 
L 4097 3272 
z
" transform="scale(0.015625)"/>
      <path id="DejaVuSerif-41" d="M 1281 1691 
L 2994 1691 
L 2138 3909 
L 1281 1691 
z
M -38 0 
L -38 331 
L 372 331 
L 2034 4666 
L 2559 4666 
L 4225 331 
L 4684 331 
L 4684 0 
L 2988 0 
L 2988 331 
L 3506 331 
L 3116 1356 
L 1153 1356 
L 763 331 
L 1275 331 
L 1275 0 
L -38 0 
z
" transform="scale(0.015625)"/>
      <path id="DejaVuSerif-70" d="M 1313 1825 
L 1313 1497 
Q 1313 897 1542 583 
Q 1772 269 2209 269 
Q 2650 269 2876 622 
Q 3103 975 3103 1663 
Q 3103 2353 2876 2703 
Q 2650 3053 2209 3053 
Q 1772 3053 1542 2737 
Q 1313 2422 1313 1825 
z
M 738 2988 
L 184 2988 
L 184 3322 
L 1313 3322 
L 1313 2803 
Q 1481 3116 1742 3264 
Q 2003 3413 2388 3413 
Q 3000 3413 3387 2928 
Q 3775 2444 3775 1663 
Q 3775 881 3387 395 
Q 3000 -91 2388 -91 
Q 2003 -91 1742 57 
Q 1481 206 1313 519 
L 1313 -997 
L 1856 -997 
L 1856 -1331 
L 184 -1331 
L 184 -997 
L 738 -997 
L 738 2988 
z
" transform="scale(0.015625)"/>
      <path id="DejaVuSerif-78" d="M 1863 2028 
L 2559 2988 
L 2113 2988 
L 2113 3322 
L 3391 3322 
L 3391 2988 
L 2950 2988 
L 2059 1759 
L 3097 331 
L 3531 331 
L 3531 0 
L 1997 0 
L 1997 331 
L 2419 331 
L 1697 1325 
L 972 331 
L 1403 331 
L 1403 0 
L 141 0 
L 141 331 
L 581 331 
L 1497 1594 
L 488 2988 
L 78 2988 
L 78 3322 
L 1563 3322 
L 1563 2988 
L 1166 2988 
L 1863 2028 
z
" transform="scale(0.015625)"/>
     </defs>
     <use xlink:href="#DejaVuSerif-47"/>
     <use xlink:href="#DejaVuSerif-41" x="79.882812"/>
     <use xlink:href="#DejaVuSerif-20" x="152.099609"/>
     <use xlink:href="#DejaVuSerif-70" x="183.886719"/>
     <use xlink:href="#DejaVuSerif-72" x="247.900391"/>
     <use xlink:href="#DejaVuSerif-6f" x="295.703125"/>
     <use xlink:href="#DejaVuSerif-78" x="355.908203"/>
     <use xlink:href="#DejaVuSerif-79" x="412.304688"/>
    </g>
   </g>
  </g>
 </g>
 <defs>
  <clipPath id="p25797b1a51">
   <rect x="39.632812" y="55.056" width="222.945618" height="142.2"/>
  </clipPath>
  <clipPath id="pfb6154a3a5">
   <rect x="282.507195" y="55.056" width="222.945618" height="142.2"/>
  </clipPath>
 </defs>
</svg>
